<svg preserveAspectRatio="none" width="100%" height="100%" overflow="visible" style="display: block;" viewBox="0 0 204.86 55.39" fill="none" xmlns="http://www.w3.org/2000/svg">
<g id="Group">
<path id="Vector" d="M21.9 0.139999H23.31C25.96 0.139999 27.74 1.24999 28.64 3.45999C28.97 4.37999 29.13 5.42 29.13 6.56V40.16C29.13 46.14 27.55 50.22 24.38 52.39C21.83 54.38 19.27 55.37 16.7 55.37H4.97C2.91 55.37 1.41 54.3 0.47 52.17C0.16 51.51 0.01 50.76 0.01 49.9V48.24L0.25 47.99H15.03C18.38 47.99 20.43 46.77 21.18 44.33C21.49 43.53 21.64 42.73 21.64 41.93V37.9C19.76 38.76 17.44 39.19 14.66 39.19H14.08C7.53 39.19 3.15 36.46 0.95 31.01C0.32 29.25 0 27.58 0 26V0.48999L0.24 0.23999H2.47C4.82 0.23999 6.4 1.62 7.22 4.39L7.34 5.47V23.18C7.34 27.34 8.21 29.91 9.94 30.9C11.14 31.54 12.29 31.85 13.37 31.85H13.58C17.58 31.85 20.11 30.74 21.17 28.53C21.48 27.75 21.63 26.99 21.63 26.26V0.37999L21.87 0.12999L21.9 0.139999Z" fill="var(--fill-0, #1E7E99)"/>
<path id="Vector_2" d="M49.36 0.019989H64.05L64.29 0.269989V2.64C64.29 5.06 62.86 6.64999 60 7.39999H51.83C46.75 7.39999 43.98 8.26999 43.54 10.01C42.99 10.79 42.71 11.95 42.71 13.48V14.19C42.71 16.87 43.66 18.58 45.56 19.29C46.03 19.58 48.08 19.82 51.71 20.03C55.71 21.05 58.64 22.76 60.5 25.13C63.03 28.47 64.3 32.13 64.3 36.1V41.69C64.3 47.51 61.85 51.63 56.95 54.05C54.93 54.93 52.99 55.37 51.13 55.37H35.49L35.25 55.12V53.21C35.25 50.57 36.71 48.87 39.63 48.11L40.82 47.99H49.94C53.63 47.99 55.85 46.72 56.58 44.18C56.82 43.18 56.95 42.22 56.95 41.32V36.68C56.95 32.07 55.41 29.21 52.33 28.1C51 27.38 48.79 27.02 45.69 27.02C42.57 26.34 40.27 25.24 38.8 23.7C36.43 21.26 35.25 18.17 35.25 14.42V14.17C35.25 7.67 37.82 3.31 42.96 1.08C44.76 0.360002 46.89 0 49.36 0V0.019989Z" fill="var(--fill-0, #1E7E99)"/>
<path id="Vector_3" d="M70.76 0.019989H86.86C92.86 0.019989 96.92 2.9 99.04 8.66C99.51 10.42 99.74 11.82 99.74 12.84V55.14L99.5 55.39H98.8C95.35 55.39 93.28 54.11 92.59 51.55C92.35 51 92.22 50 92.22 48.57V35.63H77.92V55.03L77.68 55.28H75.66C73.25 55.28 71.62 54 70.76 51.44L70.52 49.41V0.289993L70.76 0.0399933V0.019989ZM77.93 7.45999V28.18H92.23V12.72C92.23 9.95 90.76 8.24 87.82 7.59L86.38 7.47H77.93V7.45999Z" fill="var(--fill-0, #1E7E99)"/>
<path id="Vector_4" d="M106.16 0.139999H107.57C110.37 0.139999 112.18 1.32999 113.02 3.70999C113.24 4.17999 113.36 4.93 113.36 5.95V40.99C113.36 44.23 114.2 46.33 115.87 47.29C116.87 47.76 117.97 48 119.18 48H129.34C132.12 48 133.93 49.27 134.79 51.81L134.91 53.01V55.13L134.67 55.38H119.06C112.33 55.38 108.03 51.9 106.17 44.93L105.93 41.83V0.399994L106.17 0.149994L106.16 0.139999Z" fill="var(--fill-0, #1E7E99)"/>
<path id="Vector_5" d="M162.52 0.139999H164.29C166.86 0.139999 168.6 1.44999 169.49 4.06999L169.73 6.76999V39.32C169.73 45.88 168.19 50.2 165.11 52.29C162.64 54.34 159.45 55.36 155.53 55.36H153.63C148.55 55.36 144.72 53.15 142.15 48.72C141.13 46.57 140.62 44.47 140.62 42.42V0.48999L140.86 0.23999H143.1C145.32 0.23999 146.91 1.46999 147.84 3.92999L148.05 5.70999V41.8C148.05 44.81 149.23 46.76 151.6 47.64L154.2 48.1C157.28 48.1 159.45 47.46 160.72 46.19C161.74 45.12 162.25 43.86 162.25 42.41V0.360001L162.49 0.110001L162.52 0.139999Z" fill="var(--fill-0, #1E7E99)"/>
<path id="Vector_6" d="M189.92 0.019989H204.61L204.85 0.269989V2.64C204.85 5.06 203.42 6.64999 200.56 7.39999H192.39C187.31 7.39999 184.54 8.26999 184.1 10.01C183.55 10.79 183.27 11.95 183.27 13.48V14.19C183.27 16.87 184.22 18.58 186.12 19.29C186.59 19.58 188.64 19.82 192.27 20.03C196.27 21.05 199.2 22.76 201.06 25.13C203.59 28.47 204.86 32.13 204.86 36.1V41.69C204.86 47.51 202.41 51.63 197.51 54.05C195.49 54.93 193.55 55.37 191.69 55.37H176.05L175.81 55.12V53.21C175.81 50.57 177.27 48.87 180.19 48.11L181.38 47.99H190.5C194.19 47.99 196.41 46.72 197.14 44.18C197.38 43.18 197.51 42.22 197.51 41.32V36.68C197.51 32.07 195.97 29.21 192.89 28.1C191.56 27.38 189.35 27.02 186.25 27.02C183.13 26.34 180.83 25.24 179.36 23.7C176.99 21.26 175.81 18.17 175.81 14.42V14.17C175.81 7.67 178.38 3.31 183.52 1.08C185.32 0.360002 187.45 0 189.92 0V0.019989Z" fill="var(--fill-0, #1E7E99)"/>
</g>
</svg>
