<svg preserveAspectRatio="none" width="100%" height="100%" overflow="visible" style="display: block;" viewBox="0 0 12 16" fill="none" xmlns="http://www.w3.org/2000/svg">
<path id="Vector" d="M11.6364 2.04739C11.4182 1.8199 11.1273 1.74408 10.8364 1.74408H9.23636V1.13744C9.23636 0.834123 9.09091 0.530806 8.94545 0.303318C8.72727 0.0758294 8.43636 0 8.14545 0H3.78182C3.49091 0 3.2 0.151659 2.98182 0.303318C2.76364 0.530806 2.69091 0.834123 2.69091 1.13744V1.74408H1.09091C0.8 1.74408 0.509091 1.89573 0.290909 2.04739C0.0727272 2.27488 0 2.5782 0 2.88152V14.8626C0 15.1659 0.145454 15.4692 0.290909 15.6967C0.509091 15.9242 0.8 16 1.09091 16H10.9091C11.2 16 11.4909 15.8483 11.7091 15.6967C11.9273 15.4692 12 15.1659 12 14.8626V2.80569C12 2.50237 11.8545 2.19905 11.7091 1.97156L11.6364 2.04739ZM3.78182 13.1185H2.69091V11.981H3.78182V13.1185ZM3.78182 10.237H2.69091V9.09953H3.78182V10.237ZM3.78182 7.35545H2.69091V6.21801H3.78182V7.35545ZM3.78182 1.13744H8.14545V3.41232H3.78182V1.13744ZM9.23636 13.1185H4.87273V11.981H9.23636V13.1185ZM9.23636 10.237H4.87273V9.09953H9.23636V10.237ZM9.23636 7.35545H4.87273V6.21801H9.23636V7.35545Z" fill="var(--fill-0, #899091)"/>
</svg>
