<svg preserveAspectRatio="none" width="100%" height="100%" overflow="visible" style="display: block;" viewBox="0 0 13.9992 13.9973" fill="none" xmlns="http://www.w3.org/2000/svg">
<path id="Vector" d="M13.9624 1.26852C13.9624 1.26852 13.9624 1.27477 13.9624 1.2779L10.3249 13.2741C10.2699 13.469 10.1566 13.6423 10.0002 13.7709C9.84375 13.8995 9.65176 13.9772 9.44995 13.9935C9.4212 13.996 9.39245 13.9973 9.3637 13.9973C9.17457 13.9979 8.98922 13.9443 8.82953 13.843C8.66983 13.7417 8.54246 13.5968 8.46245 13.4254L6.18745 8.75665C6.16468 8.70986 6.15709 8.65714 6.16571 8.60582C6.17434 8.55451 6.19876 8.50717 6.23557 8.4704L9.85557 4.8504C9.94538 4.75587 9.99471 4.62999 9.99304 4.49961C9.99137 4.36923 9.93884 4.24466 9.84664 4.15246C9.75444 4.06026 9.62987 4.00772 9.49949 4.00605C9.3691 4.00438 9.24323 4.05371 9.1487 4.14352L5.52682 7.76352C5.49005 7.80034 5.44271 7.82476 5.3914 7.83338C5.34009 7.84201 5.28736 7.83441 5.24057 7.81165L0.567449 5.53727C0.384711 5.4496 0.232927 5.30848 0.132209 5.13259C0.031492 4.95671 -0.0134031 4.75437 0.00347341 4.5524C0.0203499 4.35042 0.0982012 4.15834 0.226711 4.00161C0.35522 3.84488 0.528321 3.7309 0.723074 3.67477L12.7193 0.0372735H12.7287C12.8995 -0.0107131 13.08 -0.0123953 13.2517 0.0323993C13.4233 0.0771939 13.58 0.166853 13.7056 0.292176C13.8311 0.4175 13.9211 0.573977 13.9663 0.745553C14.0114 0.917128 14.0101 1.09762 13.9624 1.26852Z" fill="var(--fill-0, white)"/>
</svg>
