<svg preserveAspectRatio="none" width="100%" height="100%" overflow="visible" style="display: block;" viewBox="0 0 40.0008 38.8809" fill="none" xmlns="http://www.w3.org/2000/svg">
<path id="Vector" d="M29.425 0.0124379C29.425 0.0124379 22.755 0.157438 19.7592 6.92327L18.2408 9.56077L1.86249 0.0916046C1.86249 0.0916046 -1.16418 4.67994 0.499158 10.2341C1.37999 13.1774 2.44666 15.5349 7.92333 18.8866L11.6208 21.0208L2.95416 35.9641C2.95416 35.9641 12.7208 41.9241 19.1467 36.8049C20.865 35.4366 21.9958 33.4524 22.3758 31.2891C22.3783 31.2724 22.3817 31.2558 22.3842 31.2391C22.8642 28.4483 22.3667 22.9474 16.785 19.6366L9.11166 15.1366C9.11166 15.1366 3.18916 12.3874 3.93666 5.6991L24.8267 17.7199C24.8267 17.7199 28.6358 20.0708 27.07 24.5433L36.7925 7.6641C36.7925 7.6641 37.7517 5.7566 40.0008 5.6841C40.0008 5.6841 36.9683 -0.308395 29.4258 0.0124379H29.425ZM18.5925 29.2316C18.7308 31.7141 17.4858 33.5283 15.5467 34.5683C11.8333 36.5599 8.26249 34.3999 8.26249 34.3999L14.8942 22.9116C17.8208 24.6891 18.48 27.2116 18.5925 29.2316ZM28.0592 15.2324L21.5108 11.4516L23.6108 7.72494C24.305 6.5566 25.2583 5.5541 26.4242 4.85577C30.3867 2.47744 34.0367 4.88077 34.0367 4.88077L28.06 15.2324H28.0592Z" fill="var(--fill-0, #E31E49)"/>
</svg>
