<svg preserveAspectRatio="none" width="100%" height="100%" overflow="visible" style="display: block;" viewBox="0 0 16 16" fill="none" xmlns="http://www.w3.org/2000/svg">
<path id="Vector" fill-rule="evenodd" clip-rule="evenodd" d="M4.73969 0.585846C5.11512 0.211337 5.62356 0.000705253 6.15385 0H9.84615C10.3766 0 10.8853 0.210714 11.2604 0.585786C11.6354 0.960859 11.8462 1.46957 11.8462 2V3.07692H14C15.104 3.07692 16 3.97292 16 5.07692V14C16 15.1052 15.104 16 14 16H2C1.46957 16 0.960859 15.7893 0.585786 15.4142C0.210714 15.0391 0 14.5304 0 14V5.07692C0 3.97292 0.896 3.07692 2 3.07692H4.15385V2C4.15385 1.46954 4.36431 0.961231 4.73969 0.585846ZM10.3077 3.07692V2C10.3077 1.87759 10.2591 1.7602 10.1725 1.67364C10.086 1.58709 9.96856 1.53846 9.84615 1.53846H6.15385C6.03144 1.53846 5.91405 1.58709 5.82749 1.67364C5.74093 1.7602 5.69231 1.87759 5.69231 2V3.07692H10.3077ZM8.65271 6.42421C8.4796 6.2511 8.24481 6.15385 8 6.15385C7.75518 6.15385 7.5204 6.2511 7.34729 6.42421C7.17418 6.59732 7.07692 6.83211 7.07692 7.07692V8.61539H5.53846C5.29365 8.61539 5.05886 8.71264 4.88575 8.88575C4.71264 9.05886 4.61538 9.29365 4.61538 9.53846C4.61538 9.78328 4.71264 10.0181 4.88575 10.1912C5.05886 10.3643 5.29365 10.4615 5.53846 10.4615H7.07692V12C7.07692 12.2448 7.17418 12.4796 7.34729 12.6527C7.5204 12.8258 7.75518 12.9231 8 12.9231C8.24481 12.9231 8.4796 12.8258 8.65271 12.6527C8.82583 12.4796 8.92308 12.2448 8.92308 12V10.4615H10.4615C10.7064 10.4615 10.9411 10.3643 11.1143 10.1912C11.2874 10.0181 11.3846 9.78328 11.3846 9.53846C11.3846 9.29365 11.2874 9.05886 11.1143 8.88575C10.9411 8.71264 10.7064 8.61539 10.4615 8.61539H8.92308V7.07692C8.92308 6.83211 8.82583 6.59732 8.65271 6.42421Z" fill="var(--fill-0, #1686A4)"/>
</svg>
