<svg preserveAspectRatio="none" width="100%" height="100%" overflow="visible" style="display: block;" viewBox="0 0 100.002 97.2022" fill="none" xmlns="http://www.w3.org/2000/svg">
<path id="Vector" d="M73.5625 0.0310948C73.5625 0.0310948 56.8875 0.393594 49.3979 17.3082L45.6021 23.9019L4.65623 0.229011C4.65623 0.229011 -2.91044 11.6998 1.2479 25.5853C3.44998 32.9436 6.11665 38.8373 19.8083 47.2165L29.0521 52.5519L7.3854 89.9103C7.3854 89.9103 31.8021 104.81 47.8666 92.0123C52.1625 88.5915 54.9896 83.6311 55.9396 78.2228C55.9458 78.1811 55.9541 78.1394 55.9604 78.0978C57.1604 71.1207 55.9166 57.3686 41.9625 49.0915L22.7791 37.8415C22.7791 37.8415 7.9729 30.9686 9.84165 14.2478L62.0667 44.2998C62.0667 44.2998 71.5896 50.1769 67.675 61.3582L91.9812 19.1603C91.9812 19.1603 94.3792 14.3915 100.002 14.2103C100.002 14.2103 92.4208 -0.770988 73.5646 0.0310948H73.5625ZM46.4812 73.079C46.8271 79.2853 43.7146 83.8207 38.8666 86.4207C29.5833 91.3998 20.6562 85.9998 20.6562 85.9998L37.2354 57.279C44.5521 61.7228 46.2 68.029 46.4812 73.079ZM70.1479 38.0811L53.7771 28.629L59.0271 19.3123C60.7625 16.3915 63.1458 13.8853 66.0604 12.1394C75.9667 6.19359 85.0917 12.2019 85.0917 12.2019L70.15 38.0811H70.1479Z" fill="var(--fill-0, #E31E49)"/>
</svg>
