<svg preserveAspectRatio="none" width="100%" height="100%" overflow="visible" style="display: block;" viewBox="0 0 16 16.0155" fill="none" xmlns="http://www.w3.org/2000/svg">
<g id="Medical">
<path id="Vector" d="M15.794 3.15798L12.8576 0.22155C12.7086 0.0793444 12.5105 0 12.3046 0C12.0986 0 11.9006 0.0793444 11.7516 0.22155C11.6203 0.368377 11.5477 0.558456 11.5477 0.755446C11.5477 0.952436 11.6203 1.14252 11.7516 1.28934L12.705 2.24273L11.4084 3.53934L9.34909 1.44188C9.20244 1.30029 9.00554 1.22275 8.80171 1.22632C8.59788 1.2299 8.40383 1.3143 8.26223 1.46095C8.12063 1.60761 8.04309 1.80451 8.04667 2.00833C8.05024 2.21216 8.13464 2.40621 8.2813 2.54781L2.25589 8.53508C2.00571 8.79563 1.8175 9.10923 1.70526 9.45256C1.59301 9.79589 1.55963 10.1601 1.60759 10.5181L2.02708 12.9207L0.234715 14.713C0.160738 14.7809 0.101674 14.8634 0.0612691 14.9553C0.0208641 15.0472 0 15.1465 0 15.2469C0 15.3473 0.0208641 15.4466 0.0612691 15.5385C0.101674 15.6304 0.160738 15.7129 0.234715 15.7808C0.30259 15.8548 0.385098 15.9139 0.477005 15.9543C0.568913 15.9947 0.668214 16.0155 0.768611 16.0155C0.869008 16.0155 0.96831 15.9947 1.06022 15.9543C1.15213 15.9139 1.23463 15.8548 1.30251 15.7808L3.09487 13.9885L5.49741 14.4079C5.85567 14.4648 6.22233 14.4357 6.56712 14.323C6.91191 14.2102 7.22497 14.0172 7.48045 13.7596L13.5059 7.73424C13.5685 7.82342 13.6495 7.89814 13.7435 7.95337C13.8374 8.0086 13.9421 8.04305 14.0505 8.0544C14.1589 8.06576 14.2685 8.05375 14.3718 8.0192C14.4752 7.98464 14.5699 7.92833 14.6497 7.85407C14.7295 7.7798 14.7924 7.68931 14.8342 7.58868C14.8761 7.48805 14.8959 7.37962 14.8923 7.27069C14.8887 7.16177 14.8618 7.05488 14.8134 6.95723C14.765 6.85957 14.6963 6.77342 14.6118 6.70458L12.4762 4.60713L13.7728 3.31052L14.7262 4.26391C14.867 4.40761 15.0589 4.48986 15.2601 4.49272C15.4093 4.48133 15.5524 4.42835 15.6731 4.33978C15.7937 4.25121 15.8871 4.1306 15.9427 3.99162C15.9983 3.85265 16.0138 3.70089 15.9875 3.55354C15.9613 3.40619 15.8942 3.26915 15.794 3.15798ZM6.41266 12.6918C6.31795 12.7699 6.20791 12.8272 6.08967 12.86C5.97143 12.8929 5.84761 12.9005 5.72622 12.8825L3.51436 12.5012L3.13301 10.2893C3.115 10.1679 3.12267 10.0441 3.15552 9.92586C3.18836 9.80762 3.24565 9.69759 3.32369 9.60287L4.31521 8.64949L5.53554 9.86982C5.68452 10.012 5.88256 10.0914 6.08851 10.0914C6.29446 10.0914 6.4925 10.012 6.64147 9.86982C6.71545 9.80195 6.77451 9.71944 6.81492 9.62753C6.85532 9.53562 6.87619 9.43632 6.87619 9.33593C6.87619 9.23553 6.85532 9.13623 6.81492 9.04432C6.77451 8.95241 6.71545 8.8699 6.64147 8.80203L5.383 7.54356L6.67961 6.28509L7.93808 7.50542C8.08495 7.61558 8.26664 7.66906 8.44977 7.65605C8.63291 7.64303 8.8052 7.56439 8.93502 7.43457C9.06484 7.30475 9.14348 7.13246 9.15649 6.94932C9.16951 6.76619 9.11603 6.58451 9.00587 6.43763L7.7474 5.17916L9.34909 3.61561L12.3999 6.66644L6.41266 12.6918Z" fill="var(--fill-0, #0B0C0C)"/>
</g>
</svg>
