<svg preserveAspectRatio="none" width="100%" height="100%" overflow="visible" style="display: block;" viewBox="0 0 161.883 43.762" fill="none" xmlns="http://www.w3.org/2000/svg">
<g id="Group">
<path id="Vector" d="M17.2933 0.105244H18.408C20.5033 0.105244 21.9097 0.980672 22.6177 2.72675C22.876 3.45388 23.0052 4.27191 23.0052 5.18083V31.7308C23.0052 36.4619 21.7566 39.6814 19.2547 41.3988C17.2407 42.9678 15.2172 43.7572 13.1841 43.7572H3.91791C2.28665 43.7572 1.10505 42.9152 0.363565 41.2313C0.124376 40.7147 8.97983e-07 40.1119 8.97983e-07 39.4326V38.1219L0.191349 37.9258H11.8733C14.5187 37.9258 16.1404 36.9642 16.7384 35.0364C16.9776 34.4049 17.102 33.7734 17.102 33.142V29.9608C15.619 30.6401 13.7821 30.9797 11.5863 30.9797H11.1271C5.95101 30.9797 2.49234 28.827 0.75105 24.5168C0.248753 23.1248 8.97983e-07 21.8044 8.97983e-07 20.5559V0.392269L0.191349 0.196133H1.95656C3.81267 0.196133 5.06123 1.28684 5.70704 3.47302L5.80271 4.32453V18.3171C5.80271 21.6035 6.48679 23.6366 7.85974 24.4164C8.81171 24.9187 9.71584 25.1674 10.5674 25.1674H10.7348C13.8969 25.1674 15.8965 24.292 16.7336 22.5459C16.9728 21.9288 17.0972 21.3308 17.0972 20.7472V0.29181L17.2886 0.095674L17.2933 0.105244Z" fill="var(--fill-0, #1E7E99)"/>
<path id="Vector_2" d="M39.0021 0.0047848H50.6123L50.8037 0.200918V2.07137C50.8037 3.9801 49.6747 5.23823 47.4168 5.8362H40.9587C36.9451 5.8362 34.7589 6.52507 34.4049 7.90279C33.9696 8.5199 33.7495 9.4336 33.7495 10.6487V11.2084C33.7495 13.3276 34.5006 14.6718 35.9979 15.2411C36.371 15.4659 37.9879 15.6621 40.863 15.8247C44.0251 16.6332 46.3404 17.9774 47.8043 19.8574C49.8039 22.4981 50.8037 25.3875 50.8037 28.5304V32.9506C50.8037 37.5478 48.8662 40.8056 44.9962 42.7143C43.3984 43.4127 41.8676 43.7572 40.399 43.7572H28.0377L27.8463 43.561V42.0542C27.8463 39.9636 28.9992 38.6194 31.305 38.0214L32.2474 37.9258H39.4566C42.3747 37.9258 44.1255 36.9212 44.7044 34.912C44.8957 34.1179 44.9962 33.3668 44.9962 32.654V28.9849C44.9962 25.3396 43.7811 23.0817 41.3462 22.2063C40.2985 21.6418 38.5477 21.3548 36.0984 21.3548C33.6299 20.819 31.8169 19.9436 30.6544 18.7333C28.784 16.8054 27.8463 14.3609 27.8463 11.3949V11.1988C27.8463 6.06582 29.8795 2.61672 33.9409 0.851511C35.3617 0.287026 37.0455 0 38.9973 0L39.0021 0.0047848Z" fill="var(--fill-0, #1E7E99)"/>
<path id="Vector_3" d="M55.9127 0.0047848H68.6376C73.3783 0.0047848 76.5882 2.28186 78.2673 6.83123C78.6405 8.22331 78.8222 9.32358 78.8222 10.1368V43.561L78.6309 43.7572H78.076C75.3492 43.7572 73.7132 42.743 73.163 40.7195C72.9717 40.2842 72.8712 39.4948 72.8712 38.3611V28.1334H61.572V43.4606L61.3806 43.6567H59.7828C57.8789 43.6567 56.592 42.6426 55.9127 40.619L55.7214 39.0165V0.200918L55.9127 0.0047848ZM61.5767 5.88404V22.2541H72.876V10.0364C72.876 7.85017 71.7135 6.49636 69.3934 5.97972L68.2549 5.88404H61.5767Z" fill="var(--fill-0, #1E7E99)"/>
<path id="Vector_4" d="M83.8835 0.105244H84.9981C87.2082 0.105244 88.6433 1.04286 89.3035 2.92289C89.4805 3.29602 89.5714 3.88442 89.5714 4.69767V32.3909C89.5714 34.9503 90.2315 36.6102 91.5566 37.3708C92.346 37.744 93.2166 37.9305 94.1686 37.9305H102.201C104.396 37.9305 105.831 38.9351 106.506 40.9443L106.602 41.8915V43.5658L106.41 43.762H94.0729C88.7486 43.762 85.3569 41.0113 83.8883 35.5052L83.6969 33.0511V0.306161L83.8883 0.110025L83.8835 0.105244Z" fill="var(--fill-0, #1E7E99)"/>
<path id="Vector_5" d="M128.425 0.105244H129.827C131.86 0.105244 133.228 1.14332 133.941 3.2147L134.132 5.35304V31.0754C134.132 36.2562 132.912 39.6766 130.477 41.327C128.526 42.9487 126.005 43.7572 122.905 43.7572H121.407C117.394 43.7572 114.366 42.0063 112.337 38.5094C111.529 36.8111 111.127 35.1512 111.127 33.5295V0.397054L111.318 0.200918H113.084C114.839 0.200918 116.093 1.17203 116.834 3.11424L117.002 4.52066V33.0367C117.002 35.4191 117.934 36.9547 119.81 37.6531L121.867 38.0166C124.302 38.0166 126.019 37.5143 127.019 36.5098C127.827 35.6678 128.229 34.6728 128.229 33.5199V0.29181L128.42 0.095674L128.425 0.105244Z" fill="var(--fill-0, #1E7E99)"/>
<path id="Vector_6" d="M150.081 0.0047848H161.692L161.883 0.200918V2.07137C161.883 3.9801 160.754 5.23823 158.496 5.8362H152.038C148.024 5.8362 145.838 6.52507 145.484 7.90279C145.049 8.5199 144.829 9.4336 144.829 10.6487V11.2084C144.829 13.3276 145.58 14.6718 147.077 15.2411C147.45 15.4659 149.067 15.6621 151.942 15.8247C155.104 16.6332 157.42 17.9774 158.883 19.8574C160.883 22.4981 161.883 25.3875 161.883 28.5304V32.9506C161.883 37.5478 159.945 40.8056 156.075 42.7143C154.478 43.4127 152.947 43.7572 151.478 43.7572H139.117L138.926 43.561V42.0542C138.926 39.9636 140.078 38.6194 142.384 38.0214L143.327 37.9258H150.536C153.454 37.9258 155.205 36.9212 155.784 34.912C155.975 34.1179 156.075 33.3668 156.075 32.654V28.9849C156.075 25.3396 154.86 23.0817 152.425 22.2063C151.378 21.6418 149.627 21.3548 147.178 21.3548C144.709 20.819 142.896 19.9436 141.734 18.7333C139.863 16.8054 138.926 14.3609 138.926 11.3949V11.1988C138.926 6.06582 140.959 2.61672 145.02 0.851511C146.441 0.287026 148.125 0 150.077 0L150.081 0.0047848Z" fill="var(--fill-0, #1E7E99)"/>
</g>
</svg>
