<svg preserveAspectRatio="none" width="100%" height="100%" overflow="visible" style="display: block;" viewBox="0 0 16 14" fill="none" xmlns="http://www.w3.org/2000/svg">
<g id="Vector">
<path d="M0 10.2941C0 9.15765 0.896 8.23529 2 8.23529H7.6C8.704 8.23529 9.6 9.15765 9.6 10.2941V10.3732C9.59892 10.4332 9.59464 10.4931 9.5872 10.5527C9.57238 10.6969 9.54833 10.84 9.5152 10.9809C9.40716 11.4364 9.21425 11.866 8.9472 12.2459C8.2688 13.2061 7.0048 14 4.8 14C2.5952 14 1.3312 13.2061 0.6528 12.2459C0.303248 11.7466 0.0829909 11.1639 0.0128 10.5527L0 10.3715V10.2941Z" fill="var(--fill-0, #1686A4)"/>
<path fill-rule="evenodd" clip-rule="evenodd" d="M2.53726 0.964825C3.13737 0.347058 3.95131 0 4.8 0C5.64869 0 6.46263 0.347058 7.06274 0.964825C7.66286 1.58259 8 2.42046 8 3.29412C8 4.16777 7.66286 5.00564 7.06274 5.62341C6.46263 6.24118 5.64869 6.58824 4.8 6.58824C3.95131 6.58824 3.13737 6.24118 2.53726 5.62341C1.93714 5.00564 1.6 4.16777 1.6 3.29412C1.6 2.42046 1.93714 1.58259 2.53726 0.964825Z" fill="var(--fill-0, #1686A4)"/>
<path fill-rule="evenodd" clip-rule="evenodd" d="M12 1.64706C11.3635 1.64706 10.753 1.90735 10.3029 2.37068C9.85286 2.834 9.6 3.46241 9.6 4.11765C9.6 4.77289 9.85286 5.40129 10.3029 5.86462C10.753 6.32794 11.3635 6.58824 12 6.58824C12.6365 6.58824 13.247 6.32794 13.6971 5.86462C14.1471 5.40129 14.4 4.77289 14.4 4.11765C14.4 3.46241 14.1471 2.834 13.6971 2.37068C13.247 1.90735 12.6365 1.64706 12 1.64706Z" fill="var(--fill-0, #1686A4)"/>
<path fill-rule="evenodd" clip-rule="evenodd" d="M11.9984 13.1765C11.432 13.1743 10.9344 13.1194 10.5056 13.0118C10.797 12.5358 11.0045 12.0105 11.1184 11.4602C11.3659 11.5042 11.6592 11.5272 11.9984 11.5294C13.4224 11.5294 13.9632 11.0814 14.1744 10.8096C14.2902 10.6582 14.3672 10.4792 14.3984 10.2892C14.3951 10.1823 14.3515 10.0727 14.2768 9.99826C14.2022 9.92387 14.1023 9.8823 13.9984 9.88235H11.1776C11.1143 9.293 10.914 8.72803 10.5936 8.23529H14C15.104 8.23529 16 9.15765 16 10.2941V10.3221C15.9986 10.3733 15.9948 10.4244 15.9888 10.4753C15.9255 10.9738 15.7307 11.4449 15.4256 11.8374C14.8352 12.5951 13.776 13.1765 11.9984 13.1765Z" fill="var(--fill-0, #1686A4)"/>
</g>
</svg>
