<svg preserveAspectRatio="none" width="100%" height="100%" overflow="visible" style="display: block;" viewBox="0 0 14.5379 7.22342" fill="none" xmlns="http://www.w3.org/2000/svg">
<path id="Vector (Stroke)" d="M13.8522 5.85195L13.9218 5.85552C14.2676 5.89061 14.5379 6.18261 14.5379 6.53768C14.5377 6.8926 14.2675 7.18481 13.9218 7.21984L13.8522 7.22342H0.685733C0.307146 7.22342 0.000215031 6.91622 0 6.53768C0 6.15896 0.307013 5.85195 0.685733 5.85195H13.8522ZM2.92597 2.88044V0.685733C2.92597 0.307013 3.23299 0 3.61171 0C3.99035 9.64682e-05 4.29744 0.307073 4.29744 0.685733V2.88044C4.29724 3.25893 3.99022 3.56607 3.61171 3.56617C3.23311 3.56617 2.92618 3.25899 2.92597 2.88044ZM10.2405 2.88044V0.685733C10.2405 0.307013 10.5475 0 10.9262 0C11.3048 9.64093e-05 11.6119 0.307073 11.6119 0.685733V2.88044C11.6117 3.25893 11.3047 3.56607 10.9262 3.56617C10.5476 3.56617 10.2407 3.25899 10.2405 2.88044Z" fill="var(--fill-0, #0B0C0C)"/>
</svg>
