<svg preserveAspectRatio="none" width="100%" height="100%" overflow="visible" style="display: block;" viewBox="0 0 17.981 17.9579" fill="none" xmlns="http://www.w3.org/2000/svg">
<path id="Vector" d="M3.92221 10.2099L9.21945 15.9845C9.64754 16.4892 9.58551 17.2453 9.08088 17.6734C8.57624 18.1015 7.8201 18.0395 7.39201 17.5348L0.347678 9.85567C0.246383 9.7539 0.1643 9.63467 0.105381 9.50372C0.0321112 9.34095 -0.00378817 9.16383 0.000316184 8.98538L0.000333762 8.98427C0.0044125 8.80621 0.0480335 8.63128 0.128039 8.47215C0.135819 8.45674 0.14393 8.4415 0.152367 8.42644C0.20119 8.33909 0.260854 8.25825 0.329941 8.18585L7.56156 0.383697C8.01142 -0.101653 8.76955 -0.130411 9.25488 0.319431C9.74021 0.769273 9.76899 1.52742 9.31915 2.01275L3.94261 7.81346H16.7827C17.4445 7.81346 17.981 8.34993 17.981 9.01169C17.981 9.67345 17.4445 10.2099 16.7827 10.2099H3.92221V10.2099Z" fill="var(--fill-0, #0B0C0C)"/>
</svg>
