<svg preserveAspectRatio="none" width="100%" height="100%" overflow="visible" style="display: block;" viewBox="0 0 18 18" fill="none" xmlns="http://www.w3.org/2000/svg">
<path id="Vector (Stroke)" d="M12.2626 7.24824C12.2626 4.47884 10.0176 2.23283 7.24823 2.2326C4.47869 2.2326 2.23259 4.4787 2.23259 7.24824C2.23282 10.0176 4.47883 12.2626 7.24823 12.2626C10.0174 12.2624 12.2623 10.0174 12.2626 7.24824ZM14.4965 7.24824C14.4964 8.84486 13.9778 10.3195 13.103 11.5171L17.6734 16.0939L17.7504 16.1786C18.1077 16.6175 18.0812 17.2649 17.6721 17.6734C17.263 18.0819 16.6157 18.1072 16.1773 17.7491L16.0926 17.6721L11.5235 13.0979C10.3247 13.9756 8.8478 14.4964 7.24823 14.4965C3.24524 14.4965 0.000231053 11.2512 0 7.24824C0 3.2451 3.2451 0 7.24823 0C11.2512 0.000231057 14.4965 3.24524 14.4965 7.24824Z" fill="var(--fill-0, #0D6171)"/>
</svg>
