<svg preserveAspectRatio="none" width="100%" height="100%" overflow="visible" style="display: block;" viewBox="0 0 13.5 17.3571" fill="none" xmlns="http://www.w3.org/2000/svg">
<path id="Vector (Stroke)" d="M0 14.8504V2.50671C0.000110697 1.85053 0.253105 1.21585 0.711914 0.743878C1.17168 0.270973 1.80147 0.000114091 2.46387 0H7.25293L7.41406 0.00871732C7.78857 0.0470346 8.13671 0.216947 8.39844 0.486232L13.0381 5.25848H13.0391C13.3373 5.56516 13.4999 5.97599 13.5 6.39851V14.8504C13.4999 15.5066 13.2469 16.1413 12.7881 16.6133C12.3283 17.0862 11.6985 17.357 11.0361 17.3571H2.46387C1.80147 17.357 1.17168 17.0862 0.711914 16.6133C0.310293 16.2001 0.066398 15.6623 0.0117188 15.0945L0 14.8504ZM3.42871 13.0866V11.3238C3.42871 10.913 3.7645 10.5799 4.17871 10.5799C4.59286 10.58 4.92871 10.913 4.92871 11.3238V13.0866C4.92871 13.4974 4.59286 13.8304 4.17871 13.8305C3.7645 13.8305 3.42871 13.4975 3.42871 13.0866ZM6 13.0866V9.55999C6.00012 9.14926 6.33586 8.81611 6.75 8.81611C7.16414 8.81611 7.49988 9.14926 7.5 9.55999V13.0866C7.5 13.4975 7.16421 13.8305 6.75 13.8305C6.33579 13.8305 6 13.4975 6 13.0866ZM8.57129 13.0866V7.79715C8.57129 7.38637 8.90714 7.05335 9.32129 7.05328C9.7355 7.05328 10.0713 7.38632 10.0713 7.79715V13.0866C10.0713 13.4975 9.7355 13.8305 9.32129 13.8305C8.90714 13.8304 8.57129 13.4974 8.57129 13.0866ZM1.5 14.8504L1.50488 14.9541C1.52813 15.1936 1.63106 15.4152 1.79199 15.5807C1.97499 15.7689 2.21732 15.8693 2.46387 15.8694H11.0361C11.2827 15.8693 11.525 15.7689 11.708 15.5807C11.8919 15.3916 11.9999 15.1292 12 14.8504V6.39851C12 6.37614 11.9955 6.35551 11.9883 6.33749L11.959 6.29196L7.31836 1.51875C7.3072 1.50727 7.29548 1.49934 7.28418 1.49454L7.25195 1.48776H2.46387C2.21732 1.48787 1.97499 1.58825 1.79199 1.7764C1.60808 1.96557 1.50011 2.22796 1.5 2.50671V14.8504Z" fill="var(--fill-0, black)"/>
</svg>
