<svg preserveAspectRatio="none" width="100%" height="100%" overflow="visible" style="display: block;" viewBox="0 0 16.5 15.5" fill="none" xmlns="http://www.w3.org/2000/svg">
<path id="Vector" d="M8.75 10.375L11.75 7.75M11.75 7.75L8.75 5.125M11.75 7.75H0.75M4.75 3.59252V3.55018C4.75 2.57008 4.75 2.07967 4.96799 1.70533C5.15973 1.37604 5.46547 1.10851 5.8418 0.940742C6.2696 0.75 6.8301 0.75 7.9502 0.75H12.5502C13.6703 0.75 14.2296 0.75 14.6574 0.940742C15.0337 1.10851 15.3405 1.37604 15.5322 1.70533C15.75 2.0793 15.75 2.56912 15.75 3.5473V11.9532C15.75 12.9313 15.75 13.4204 15.5322 13.7944C15.3405 14.1237 15.0337 14.3917 14.6574 14.5594C14.23 14.75 13.671 14.75 12.5531 14.75H7.9469C6.829 14.75 6.2692 14.75 5.8418 14.5594C5.46547 14.3917 5.15973 14.1234 4.96799 13.7942C4.75 13.4198 4.75 12.9301 4.75 11.95V11.9063" stroke="var(--stroke-0, black)" stroke-width="1.5" stroke-linecap="round" stroke-linejoin="round"/>
</svg>
