<svg preserveAspectRatio="none" width="100%" height="100%" overflow="visible" style="display: block;" viewBox="0 0 134.553 43.7572" fill="none" xmlns="http://www.w3.org/2000/svg">
<g id="Group">
<path id="Vector" d="M17.3651 0.124379H18.4797C20.5846 0.124379 21.991 0.999808 22.7038 2.74589C22.9621 3.47302 23.0913 4.29104 23.0913 5.19996V31.7356C23.0913 36.4619 21.8379 39.6814 19.3264 41.3988C17.3029 42.9679 15.2698 43.7524 13.2319 43.7524H3.93226C2.29621 43.7524 1.10506 42.9104 0.363571 41.2266C0.119599 40.7099 0 40.1119 0 39.4279V38.1171L0.196136 37.921H11.9212C14.5762 37.921 16.2026 36.9594 16.8006 35.0316C17.0446 34.4001 17.1642 33.7687 17.1642 33.1372V29.956C15.6764 30.6353 13.8299 30.9749 11.6294 30.9749H11.1701C5.97494 30.9749 2.50191 28.8222 0.755837 24.5168C0.253541 23.1248 0.00478845 21.8044 0.00478845 20.5607V0.411405L0.200918 0.215268H1.97091C3.8318 0.215268 5.08515 1.30597 5.73575 3.49215L5.83142 4.34367V18.3266C5.83142 21.6131 6.52028 23.6414 7.89323 24.4212C8.84998 24.9235 9.75412 25.1722 10.6104 25.1722H10.7826C13.9543 25.1722 15.9634 24.2968 16.8006 22.5507C17.0446 21.9336 17.1642 21.3356 17.1642 20.752V0.310946L17.3603 0.11481L17.3651 0.124379Z" fill="var(--fill-0, #333333)"/>
<path id="Vector_2" d="M31.7164 0.0287016H50.9424L51.1385 0.224838V1.92308C51.1385 3.70264 50.134 4.95599 48.1295 5.68791L47.278 5.78358H42.7622V43.4606C42.7622 43.6567 42.1307 43.7524 40.8678 43.7524C38.1649 43.4271 36.8111 42.0781 36.8111 39.6958V5.7788H27.9516C27.9516 2.60716 28.9562 0.755836 30.9606 0.220053L31.7116 0.0239168L31.7164 0.0287016Z" fill="var(--fill-0, #333333)"/>
<path id="Vector_3" d="M67.2886 0.124379H73.4788C77.057 0.124379 78.8462 1.75086 78.8462 5.00383V5.75488L78.65 5.95102H67.1929C64.734 5.95102 63.1123 6.60639 62.3374 7.91714C61.8351 8.85476 61.5863 10.3521 61.5863 12.4091V18.9868H71.5174C73.6701 18.9868 75.11 19.9244 75.8372 21.8044L76.0333 23.2109V24.6173L75.8372 24.7895H61.7585L61.5911 24.9856V31.4677C61.5911 34.3953 62.0838 36.1797 63.0693 36.8111C63.7342 37.5574 64.9541 37.9258 66.7336 37.9258H74.1389C76.3395 37.9258 77.8129 38.8634 78.5591 40.7434L78.7553 42.346V43.561L78.5591 43.7572H66.3701C61.5959 43.7572 58.2759 41.5423 56.415 37.1029C55.9797 35.7252 55.7597 34.2853 55.7597 32.7832V11.0075C55.7597 5.98929 58.008 2.54975 62.5096 0.688865C63.7055 0.31573 65.3033 0.12916 67.2933 0.12916L67.2886 0.124379Z" fill="var(--fill-0, #333333)"/>
<path id="Vector_4" d="M95.1397 0.0287016H101.985C105.176 0.0287016 106.769 1.65519 106.769 4.90815V5.65921L106.573 5.85534H94.7474C92.1403 5.85534 90.4803 6.79296 89.7723 8.67298C89.5953 9.5819 89.5044 10.8592 89.5044 12.5096V31.836C89.5044 34.668 90.0641 36.4237 91.1787 37.1029C92.0685 37.6052 93.0731 37.854 94.1877 37.854H101.885C104.2 37.854 105.726 38.7294 106.472 40.4755L106.669 41.9824V43.4654L106.472 43.6615H96.7136L93.341 43.7572C91.6093 43.7572 89.6097 43.0061 87.3421 41.4992C84.8976 39.557 83.6778 36.6198 83.6778 32.6875V10.2564C83.6778 6.22847 85.4908 3.19078 89.1169 1.15289C90.6238 0.406619 92.6282 0.0382712 95.1349 0.0382712L95.1397 0.0287016Z" fill="var(--fill-0, #333333)"/>
<path id="Vector_5" d="M111.558 0.00478492H112.6C115.078 0.00478492 116.671 1.09548 117.384 3.28167L117.48 4.32453V15.5903H128.746V0.196133L128.918 1.24696e-07H129.769C132.329 1.24696e-07 133.922 1.15767 134.553 3.47302V43.5563L134.481 43.6519V43.7476C131.487 43.7476 129.635 42.8435 128.923 41.0304L128.75 39.624V21.417H117.485V43.5563L117.389 43.6519V43.7476C113.505 43.7476 111.562 42.3077 111.562 39.4279V1.24696e-07L111.558 0.00478492Z" fill="var(--fill-0, #333333)"/>
</g>
</svg>
