<svg preserveAspectRatio="none" width="100%" height="100%" overflow="visible" style="display: block;" viewBox="0 0 13.001 12.9998" fill="none" xmlns="http://www.w3.org/2000/svg">
<path id="Vector" d="M12.7077 4.08547L8.91461 0.292974C8.82174 0.200091 8.7115 0.126411 8.59015 0.0761423C8.46881 0.0258733 8.33876 0 8.20742 0C8.07608 0 7.94602 0.0258733 7.82468 0.0761423C7.70334 0.126411 7.59309 0.200091 7.50023 0.292974L4.14836 3.65547C3.48211 3.44672 1.96086 3.19485 0.373356 4.47672C0.263934 4.56471 0.174268 4.67475 0.110194 4.79969C0.0461196 4.92463 0.00907386 5.06166 0.00146822 5.20186C-0.00613743 5.34207 0.0158674 5.4823 0.0660503 5.61343C0.116233 5.74457 0.193469 5.86367 0.292731 5.96297L3.31273 8.98172L0.646481 11.6461C0.552661 11.7399 0.499953 11.8672 0.499953 11.9998C0.499953 12.1325 0.552661 12.2598 0.646481 12.3536C0.740301 12.4474 0.867549 12.5001 1.00023 12.5001C1.13291 12.5001 1.26016 12.4474 1.35398 12.3536L4.01836 9.68735L7.03648 12.7055C7.12927 12.7986 7.23951 12.8726 7.36092 12.9231C7.48232 12.9736 7.61249 12.9997 7.74398 12.9998C7.76773 12.9998 7.79086 12.9998 7.81461 12.9998C7.95716 12.99 8.09591 12.9495 8.22144 12.8813C8.34697 12.813 8.45634 12.7185 8.54211 12.6042C9.76961 10.973 9.65148 9.64672 9.36648 8.85422L12.7084 5.49985C12.8012 5.40695 12.8748 5.29666 12.925 5.1753C12.9753 5.05394 13.0011 4.92387 13.001 4.79253C13.001 4.66119 12.975 4.53115 12.9247 4.40983C12.8744 4.28851 12.8007 4.17829 12.7077 4.08547ZM12.0002 4.79297L8.42086 8.38422C8.34694 8.45842 8.29818 8.55396 8.28147 8.65735C8.26476 8.76074 8.28094 8.86677 8.32773 8.96047C8.91898 10.1436 8.21523 11.3723 7.74398 11.9992L1.00023 5.25485C1.75523 4.6461 2.47773 4.48547 3.03023 4.48547C3.38081 4.48069 3.7285 4.54946 4.05086 4.68735C4.1449 4.73442 4.25139 4.75063 4.35519 4.73369C4.45898 4.71674 4.55479 4.6675 4.62898 4.59297L8.20773 0.999849L12.0002 4.79235V4.79297Z" fill="var(--fill-0, #0B0C0C)"/>
</svg>
