<svg preserveAspectRatio="none" width="100%" height="100%" overflow="visible" style="display: block;" viewBox="0 0 14.625 14.625" fill="none" xmlns="http://www.w3.org/2000/svg">
<path id="Vector" d="M14.625 5.90625V8.71875C14.625 9.01712 14.5065 9.30327 14.2955 9.51425C14.0845 9.72522 13.7984 9.84375 13.5 9.84375H9.84375V13.5C9.84375 13.7984 9.72522 14.0845 9.51425 14.2955C9.30327 14.5065 9.01712 14.625 8.71875 14.625H5.90625C5.60788 14.625 5.32173 14.5065 5.11075 14.2955C4.89978 14.0845 4.78125 13.7984 4.78125 13.5V9.84375H1.125C0.826631 9.84375 0.540483 9.72522 0.329505 9.51425C0.118526 9.30327 0 9.01712 0 8.71875V5.90625C0 5.60788 0.118526 5.32173 0.329505 5.11075C0.540483 4.89978 0.826631 4.78125 1.125 4.78125H4.78125V1.125C4.78125 0.826631 4.89978 0.540483 5.11075 0.329505C5.32173 0.118526 5.60788 0 5.90625 0H8.71875C9.01712 0 9.30327 0.118526 9.51425 0.329505C9.72522 0.540483 9.84375 0.826631 9.84375 1.125V4.78125H13.5C13.7984 4.78125 14.0845 4.89978 14.2955 5.11075C14.5065 5.32173 14.625 5.60788 14.625 5.90625Z" fill="var(--fill-0, #899091)"/>
</svg>
