<svg preserveAspectRatio="none" width="100%" height="100%" overflow="visible" style="display: block;" viewBox="0 0 12.6 15.4" fill="none" xmlns="http://www.w3.org/2000/svg">
<path id="Vector" fill-rule="evenodd" clip-rule="evenodd" d="M12.1 4.3L8.5 0.4C8.3 0.2 8 0 7.7 0H7.6H1.4C1.1 0 0.7 0.2 0.4 0.4C0.1 0.7 0 1.1 0 1.5V13.9C0 14.3 0.2 14.7 0.4 15C0.7 15.3 1 15.4 1.4 15.4H11.2C11.5 15.4 11.9 15.2 12.2 15C12.5 14.7 12.6 14.3 12.6 13.9V5.4C12.6 5 12.4 4.6 12.2 4.3H12.1ZM1.2 14.2V10.7L3.9 7.7L10.5 14.2H1.2ZM11.4 13.3L7.1 9.1L8.2 7.9L8.4 7.7L11.4 10.7V13.4V13.3Z" fill="var(--fill-0, #1686A4)"/>
</svg>
