<svg preserveAspectRatio="none" width="100%" height="100%" overflow="visible" style="display: block;" viewBox="0 0 12.9798 11.9812" fill="none" xmlns="http://www.w3.org/2000/svg">
<path id="Vector" d="M11.9813 0H0.998445C0.733641 0 0.479683 0.105193 0.292438 0.292438C0.105193 0.479682 0 0.733641 0 0.998445V8.98601C0 9.25081 0.105193 9.50477 0.292438 9.69201C0.479683 9.87926 0.733641 9.98445 0.998445 9.98445H4.76945L5.62312 11.4784C5.71046 11.6311 5.83663 11.7581 5.98885 11.8464C6.14106 11.9347 6.31392 11.9812 6.48989 11.9812C6.66587 11.9812 6.83872 11.9347 6.99094 11.8464C7.14315 11.7581 7.26932 11.6311 7.35667 11.4784L8.21034 9.98445H11.9813C12.2461 9.98445 12.5001 9.87926 12.6873 9.69201C12.8746 9.50477 12.9798 9.25081 12.9798 8.98601V0.998445C12.9798 0.733641 12.8746 0.479682 12.6873 0.292438C12.5001 0.105193 12.2461 0 11.9813 0ZM8.48678 6.48989H4.493C4.3606 6.48989 4.23362 6.4373 4.14 6.34367C4.04638 6.25005 3.99378 6.12307 3.99378 5.99067C3.99378 5.85827 4.04638 5.73129 4.14 5.63767C4.23362 5.54404 4.3606 5.49145 4.493 5.49145H8.48678C8.61919 5.49145 8.74616 5.54404 8.83979 5.63767C8.93341 5.73129 8.98601 5.85827 8.98601 5.99067C8.98601 6.12307 8.93341 6.25005 8.83979 6.34367C8.74616 6.4373 8.61919 6.48989 8.48678 6.48989ZM8.48678 4.493H4.493C4.3606 4.493 4.23362 4.44041 4.14 4.34678C4.04638 4.25316 3.99378 4.12618 3.99378 3.99378C3.99378 3.86138 4.04638 3.7344 4.14 3.64078C4.23362 3.54715 4.3606 3.49456 4.493 3.49456H8.48678C8.61919 3.49456 8.74616 3.54715 8.83979 3.64078C8.93341 3.7344 8.98601 3.86138 8.98601 3.99378C8.98601 4.12618 8.93341 4.25316 8.83979 4.34678C8.74616 4.44041 8.61919 4.493 8.48678 4.493Z" fill="var(--fill-0, white)"/>
</svg>
