<svg preserveAspectRatio="none" width="100%" height="100%" overflow="visible" style="display: block;" viewBox="0 0 13.5 17.3571" fill="none" xmlns="http://www.w3.org/2000/svg">
<path id="Vector (Stroke)" d="M0 14.8504V2.50671C0.000110697 1.85053 0.253105 1.21585 0.711914 0.743878C1.17168 0.270973 1.80147 0.000114091 2.46387 0H7.25293L7.41406 0.00871732C7.78857 0.0470346 8.13671 0.216947 8.39844 0.486232L13.0381 5.25848C13.3363 5.56516 13.4999 5.97599 13.5 6.39851V14.8504C13.4999 15.5066 13.2469 16.1413 12.7881 16.6133C12.3283 17.0862 11.6985 17.357 11.0361 17.3571H2.46387C1.80147 17.357 1.17168 17.0862 0.711914 16.6133C0.310293 16.2001 0.066398 15.6623 0.0117188 15.0945L0 14.8504ZM3.42871 11.3238V13.0866C3.42871 13.4975 3.7645 13.8305 4.17871 13.8305C4.59286 13.8304 4.92871 13.4974 4.92871 13.0866V11.3238C4.92871 10.913 4.59286 10.58 4.17871 10.5799C3.7645 10.5799 3.42871 10.913 3.42871 11.3238ZM6 9.55999V13.0866C6 13.4975 6.33579 13.8305 6.75 13.8305C7.16421 13.8305 7.5 13.4975 7.5 13.0866V9.55999C7.49988 9.14926 7.16414 8.81611 6.75 8.81611C6.33586 8.81611 6.00012 9.14926 6 9.55999ZM8.57129 7.79715V13.0866C8.57129 13.4974 8.90714 13.8304 9.32129 13.8305C9.7355 13.8305 10.0713 13.4975 10.0713 13.0866V7.79715C10.0713 7.38632 9.7355 7.05328 9.32129 7.05328C8.90714 7.05335 8.57129 7.38637 8.57129 7.79715Z" fill="var(--fill-0, #1686A4)"/>
</svg>
