<svg preserveAspectRatio="none" width="100%" height="100%" overflow="visible" style="display: block;" viewBox="0 0 12.0014 11.994" fill="none" xmlns="http://www.w3.org/2000/svg">
<path id="Vector" opacity="0.2" d="M11.8541 4.64321L8.27477 8.23446C8.99102 9.66758 8.16727 11.1007 7.64289 11.797C7.59977 11.8536 7.54506 11.9003 7.48241 11.9341C7.41977 11.9679 7.35064 11.9879 7.27964 11.9928C7.20865 11.9977 7.13742 11.9874 7.07072 11.9626C7.00403 11.9377 6.9434 11.899 6.89289 11.8488L0.146642 5.10696C0.0968564 5.05723 0.0581285 4.99755 0.0329909 4.93182C0.00785334 4.86609 -0.00312755 4.7958 0.000766004 4.72554C0.00465956 4.65528 0.0233398 4.58663 0.0555856 4.52409C0.0878314 4.46154 0.132916 4.40651 0.187892 4.36258C2.04102 2.86758 3.77539 3.73758 3.77539 3.73758L7.35477 0.146331C7.44853 0.0526334 7.57565 0 7.7082 0C7.84076 0 7.96788 0.0526334 8.06164 0.146331L11.8541 3.93446C11.9008 3.98092 11.9379 4.03614 11.9631 4.09695C11.9884 4.15777 12.0014 4.22297 12.0014 4.28883C12.0014 4.35469 11.9884 4.4199 11.9631 4.48071C11.9379 4.54152 11.9008 4.59675 11.8541 4.64321Z" fill="var(--fill-0, #0B0C0C)"/>
</svg>
