<svg preserveAspectRatio="none" width="100%" height="100%" overflow="visible" style="display: block;" viewBox="0 0 15.0473 14.4" fill="none" xmlns="http://www.w3.org/2000/svg">
<g id="Group">
<path id="Vector" d="M2.03092 0.100391C1.51881 0.100391 1.0278 0.303703 0.665685 0.66582C0.303611 1.02793 0.100255 1.51898 0.100255 2.03105V13.742C0.100278 13.8523 0.132648 13.9608 0.194005 14.0525C0.255358 14.1442 0.343017 14.2155 0.444982 14.2576C0.546908 14.2997 0.659112 14.3105 0.767247 14.2889C0.875246 14.2672 0.974562 14.2144 1.0524 14.1365L3.66471 11.5242C3.81757 11.3715 4.02476 11.286 4.24088 11.2859H13.0163C13.5284 11.2859 14.0194 11.0816 14.3815 10.7195C14.7436 10.3574 14.9469 9.86637 14.9469 9.3543V2.03105C14.9469 1.51894 14.7436 1.02794 14.3815 0.66582C14.0194 0.303703 13.5284 0.100391 13.0163 0.100391H2.03092Z" fill="var(--fill-0, #16A1BD)" stroke="var(--stroke-0, #16A1BD)" stroke-width="0.2"/>
<path id="Vector_2" d="M6.66864 4.55734C6.49032 4.27963 6.22668 4.06731 5.91734 3.95228C5.60801 3.83724 5.26969 3.82572 4.95325 3.91943C4.6368 4.01315 4.35932 4.20704 4.16251 4.47197C3.9657 4.7369 3.86019 5.05855 3.86185 5.38858C3.86201 5.66187 3.93557 5.93011 4.07482 6.16526C4.21408 6.40042 4.41393 6.59386 4.6535 6.72539C4.89307 6.85691 5.16356 6.92169 5.43671 6.91295C5.70987 6.90421 5.97567 6.82228 6.20634 6.67571C6.08641 7.03182 5.86304 7.41174 5.49503 7.79257C5.42462 7.86541 5.38603 7.96323 5.38774 8.06452C5.38946 8.16582 5.43134 8.26228 5.50418 8.33269C5.57702 8.4031 5.67485 8.44169 5.77614 8.43997C5.87743 8.43826 5.97389 8.39637 6.0443 8.32353C7.40467 6.91373 7.22799 5.38125 6.66864 4.55917V4.55734ZM10.3305 4.55734C10.1522 4.27963 9.88851 4.06731 9.57917 3.95228C9.26984 3.83724 8.93152 3.82572 8.61508 3.91943C8.29863 4.01315 8.02115 4.20704 7.82434 4.47197C7.62753 4.7369 7.52203 5.05855 7.52368 5.38858C7.52385 5.66187 7.5974 5.93011 7.73666 6.16526C7.87591 6.40042 8.07576 6.59386 8.31533 6.72539C8.5549 6.85691 8.82539 6.92169 9.09855 6.91295C9.3717 6.90421 9.6375 6.82228 9.86817 6.67571C9.74824 7.03182 9.52487 7.41174 9.15686 7.79257C9.08645 7.86541 9.04786 7.96323 9.04957 8.06452C9.05129 8.16582 9.09317 8.26228 9.16601 8.33269C9.23885 8.4031 9.33668 8.44169 9.43797 8.43997C9.53926 8.43826 9.63572 8.39637 9.70613 8.32353C11.0665 6.91373 10.8898 5.38125 10.3305 4.55917V4.55734Z" fill="var(--fill-0, white)"/>
</g>
</svg>
