<svg preserveAspectRatio="none" width="100%" height="100%" overflow="visible" style="display: block;" viewBox="0 0 19.1406 17.6055" fill="none" xmlns="http://www.w3.org/2000/svg">
<path id="Vector (Stroke)" d="M9.49609 0.00293037C10.2518 -0.0262833 11.0787 0.161518 11.6914 0.629883L11.79 0.717774C11.8779 0.80749 11.9405 0.902767 11.9697 0.947114C12.0288 1.03712 12.094 1.14687 12.1553 1.25684C12.2789 1.4787 12.42 1.75463 12.5557 2.02832C12.763 2.44675 12.9709 2.88739 13.0961 3.15289C13.1343 3.23379 13.1651 3.29915 13.1855 3.3418L13.6689 4.37695C14.0526 5.21572 14.4218 6.06115 14.7869 6.89702C14.874 7.09666 14.961 7.29581 15.0479 7.49414L16.0215 9.74805C16.9846 12.01 17.9122 14.2952 18.7656 16.5938L19.1406 17.6055H14.71L14.4873 17.3672C14.3354 17.2047 14.2482 17.0299 14.1943 16.9053C14.1698 16.8485 14.1485 16.7925 14.1324 16.75L14.1279 16.7383C14.1096 16.6901 14.0975 16.66 14.0859 16.6328L13.7715 15.8867C13.1859 14.4777 12.6415 13.0524 12.1016 11.6386C11.9733 11.3026 11.8451 10.9671 11.7168 10.6328C11.0145 8.80301 10.3005 6.99801 9.4873 5.24023C7.72233 9.15172 6.05293 13.1013 4.58008 17.1133L4.39941 17.6055H0L0.355469 16.6045C1.01695 14.7417 1.78557 12.9142 2.54395 11.1162L3.07422 9.86914C3.60851 8.62266 4.15464 7.37867 4.70898 6.14258L5.20215 4.99219C5.4012 4.52435 5.62941 3.99399 5.86523 3.47363C6.10032 2.95492 6.34845 2.4365 6.58887 1.99316C6.8191 1.56863 7.07718 1.14632 7.3418 0.873048L7.45117 0.766602C8.01525 0.253334 8.78896 0.0303416 9.49609 0.00293037Z" fill="var(--fill-0, #1686A4)"/>
</svg>
