<svg preserveAspectRatio="none" width="100%" height="100%" overflow="visible" style="display: block;" viewBox="0 0 6.16376 6.30274" fill="none" xmlns="http://www.w3.org/2000/svg">
<g id="Vector (Stroke)">
<path fill-rule="evenodd" clip-rule="evenodd" d="M1.66375 0.304121C2.24768 0.0270672 2.90511 -0.0646882 3.54657 0.0453315L3.81805 0.103925C4.44305 0.268935 5.00434 0.623587 5.42352 1.1215L5.59344 1.34123C5.96433 1.87026 6.16461 2.50303 6.16375 3.15373L6.15399 3.37346C6.05393 4.44962 5.23452 5.17426 4.62957 5.57756C4.28419 5.80778 3.9438 5.97686 3.69305 6.0883C3.56665 6.14447 3.46002 6.18707 3.38348 6.21623C3.34524 6.23079 3.31416 6.24242 3.29168 6.25041L3.26434 6.26018L3.25262 6.26408C2.85976 6.39483 2.43337 6.18329 2.30243 5.79045C2.17153 5.39771 2.38352 4.97344 2.77606 4.84221L2.78973 4.83732C2.79784 4.83444 2.80927 4.83028 2.82357 4.82494C2.8288 4.82299 2.83442 4.82087 2.8404 4.81861L2.85028 4.81486C2.90495 4.79403 2.98632 4.76189 3.08465 4.71818C3.28373 4.62969 3.54323 4.49902 3.79754 4.32951C4.35206 3.95983 4.66355 3.55545 4.66375 3.15373L4.6579 3.00725C4.63284 2.718 4.53162 2.44035 4.36493 2.20256L4.27606 2.08732C4.05647 1.82649 3.76257 1.64056 3.43524 1.55412L3.29266 1.52385C2.95652 1.46621 2.61228 1.51432 2.30633 1.65959L2.17743 1.72697C1.84164 1.92436 1.58702 2.23461 1.4577 2.60197C1.32025 2.99271 0.891411 3.19841 0.500669 3.06096C0.110153 2.92346 -0.0945678 2.4955 0.0426607 2.1049C0.289505 1.40318 0.776324 0.810933 1.41766 0.434003L1.66375 0.304121Z" fill="var(--fill-0, white)"/>
<path fill-rule="evenodd" clip-rule="evenodd" d="M3.54657 0.0453315C2.90511 -0.0646882 2.24768 0.0270672 1.66375 0.304121L1.41766 0.434003C0.776324 0.810933 0.289505 1.40318 0.0426607 2.1049C-0.0945678 2.4955 0.110153 2.92346 0.500669 3.06096C0.891411 3.19841 1.32025 2.99271 1.4577 2.60197C1.58702 2.23461 1.84164 1.92436 2.17743 1.72697L2.30633 1.65959C2.61228 1.51432 2.95652 1.46621 3.29266 1.52385L3.43524 1.55412C3.76257 1.64056 4.05647 1.82649 4.27606 2.08732L4.36493 2.20256C4.53162 2.44035 4.63284 2.718 4.6579 3.00725L4.66375 3.15373C4.66355 3.55545 4.35206 3.95983 3.79754 4.32951C3.54323 4.49902 3.28373 4.62969 3.08465 4.71818C2.98632 4.76189 2.90495 4.79403 2.85028 4.81486L2.82357 4.82494L2.78973 4.83732L2.77606 4.84221C2.38352 4.97344 2.17153 5.39771 2.30243 5.79045C2.43337 6.18329 2.85976 6.39483 3.25262 6.26408L3.26434 6.26018L3.29168 6.25041C3.31416 6.24242 3.34524 6.23079 3.38348 6.21623C3.46002 6.18707 3.56665 6.14447 3.69305 6.0883C3.9438 5.97686 4.28419 5.80778 4.62957 5.57756C5.23452 5.17426 6.05393 4.44962 6.15399 3.37346L6.16375 3.15373C6.16461 2.50303 5.96433 1.87026 5.59344 1.34123L5.42352 1.1215C5.00434 0.623587 4.44305 0.268935 3.81805 0.103925L3.54657 0.0453315Z" fill="var(--fill-0, white)"/>
</g>
</svg>
