<svg preserveAspectRatio="none" width="100%" height="100%" overflow="visible" style="display: block;" viewBox="0 0 169.25 55.05" fill="none" xmlns="http://www.w3.org/2000/svg">
<g id="Group">
<path id="Vector" d="M21.84 0.169998H23.24C25.89 0.169998 27.66 1.27 28.55 3.47C28.88 4.39 29.04 5.40999 29.04 6.54999V39.93C29.04 45.88 27.46 49.93 24.31 52.08C21.76 54.06 19.21 55.04 16.64 55.04H4.95C2.89 55.04 1.4 53.98 0.46 51.86C0.16 51.21 0 50.46 0 49.6V47.95L0.24 47.71H14.99C18.33 47.71 20.37 46.5 21.13 44.08C21.44 43.29 21.59 42.49 21.59 41.7V37.7C19.72 38.56 17.4 38.98 14.63 38.98H14.05C7.51 38.98 3.15 36.27 0.95 30.86C0.32 29.11 0 27.45 0 25.88V0.529999L0.24 0.289993H2.47C4.81 0.289993 6.39 1.65999 7.2 4.40999L7.32 5.48V23.07C7.32 27.2 8.19 29.76 9.92 30.74C11.12 31.37 12.26 31.69 13.34 31.69H13.55C17.54 31.69 20.06 30.59 21.12 28.39C21.43 27.62 21.58 26.86 21.58 26.13V0.419998L21.82 0.179993L21.84 0.169998Z" fill="var(--fill-0, #333333)"/>
<path id="Vector_2" d="M39.89 0.0499878H64.08L64.32 0.289993V2.42999C64.32 4.66999 63.06 6.24999 60.53 7.15999L59.46 7.28H53.78V54.68C53.78 54.92 52.99 55.05 51.4 55.05C48 54.64 46.3 52.94 46.3 49.95V7.28H35.15C35.15 3.29 36.41 0.959993 38.94 0.289993L39.89 0.0499878Z" fill="var(--fill-0, #333333)"/>
<path id="Vector_3" d="M84.64 0.169998H92.43C96.93 0.169998 99.18 2.22 99.18 6.31V7.25999L98.94 7.5H84.52C81.42 7.5 79.39 8.32 78.41 9.97C77.78 11.15 77.46 13.03 77.46 15.62V23.9H89.95C92.66 23.9 94.47 25.08 95.39 27.44L95.64 29.21V30.98L95.39 31.19H77.68L77.47 31.43V39.58C77.47 43.27 78.09 45.51 79.33 46.3C80.16 47.24 81.7 47.7 83.94 47.7H93.25C96.02 47.7 97.87 48.88 98.81 51.24L99.05 53.26V54.79L98.81 55.03H83.48C77.47 55.03 73.3 52.24 70.96 46.66C70.41 44.93 70.14 43.12 70.14 41.22V13.83C70.14 7.52 72.97 3.18999 78.63 0.849991C80.14 0.379991 82.14 0.149994 84.65 0.149994L84.64 0.169998Z" fill="var(--fill-0, #333333)"/>
<path id="Vector_4" d="M119.68 0.0499878H128.29C132.3 0.0499878 134.31 2.09999 134.31 6.18999V7.14L134.07 7.37999H119.2C115.92 7.37999 113.83 8.56 112.94 10.92C112.72 12.06 112.6 13.67 112.6 15.75V40.06C112.6 43.62 113.3 45.83 114.71 46.69C115.83 47.32 117.09 47.64 118.5 47.64H128.18C131.09 47.64 133.02 48.74 133.95 50.94L134.2 52.83V54.69L133.95 54.93H121.67L117.43 55.05C115.25 55.05 112.74 54.1 109.89 52.21C106.82 49.77 105.28 46.07 105.28 41.12V12.9C105.28 7.82999 107.56 4.01 112.12 1.45C114.01 0.509997 116.54 0.0499878 119.69 0.0499878H119.68Z" fill="var(--fill-0, #333333)"/>
<path id="Vector_5" d="M140.33 0.019989H141.64C144.75 0.019989 146.76 1.39 147.66 4.14L147.78 5.45V19.62H161.95V0.259995L162.16 0.019989H163.23C166.45 0.019989 168.45 1.48 169.25 4.39V54.81L169.16 54.93V55.05C165.39 55.05 163.06 53.91 162.17 51.63L161.96 49.86V26.95H147.79V54.8L147.67 54.92V55.04C142.78 55.04 140.34 53.23 140.34 49.6V0L140.33 0.019989Z" fill="var(--fill-0, #333333)"/>
</g>
</svg>
