<svg preserveAspectRatio="none" width="100%" height="100%" overflow="visible" style="display: block;" viewBox="0 0 102.881 100.003" fill="none" xmlns="http://www.w3.org/2000/svg">
<path id="Vector" d="M75.6805 0.0369568C75.6805 0.0369568 58.5259 0.410091 50.8193 17.8135L46.9157 24.5968L4.78978 0.237875C4.78978 0.237875 -2.99342 12.0394 1.28328 26.3238C3.55078 33.8917 6.29189 39.9575 20.3753 48.5779L29.8855 54.0697L7.59786 92.5025C7.59786 92.5025 32.7175 107.83 49.2454 94.6648C53.6656 91.1439 56.5741 86.0396 57.55 80.4761C57.5596 80.4331 57.5644 80.39 57.5739 80.3469C58.8082 73.1713 57.5309 59.0209 43.1748 50.5058L23.4369 38.929C23.4369 38.929 8.2054 31.8586 10.1285 14.6562L63.855 45.5737C63.855 45.5737 73.6522 51.6204 69.6243 63.1206L94.6291 19.7078C94.6291 19.7078 97.0975 14.8045 102.881 14.6179C102.881 14.6179 95.0835 -0.79542 75.6853 0.032173L75.6805 0.0369568ZM47.8198 75.1853C48.1738 81.5668 44.9735 86.2358 39.984 88.9099C30.4356 94.0333 21.2507 88.4746 21.2507 88.4746L38.3097 58.93C45.8346 63.5033 47.5328 69.9901 47.8246 75.1853H47.8198ZM72.1645 39.1778L55.3208 29.4524L60.7217 19.8657C62.506 16.8615 64.9601 14.283 67.9595 12.4843C78.149 6.36589 87.5395 12.5465 87.5395 12.5465L72.1692 39.1682L72.1645 39.1778Z" fill="var(--fill-0, #E31E49)"/>
</svg>
