<svg preserveAspectRatio="none" width="100%" height="100%" overflow="visible" style="display: block;" viewBox="0 0 17.5 17.5" fill="none" xmlns="http://www.w3.org/2000/svg">
<path id="Vector (Stroke)" d="M16 8.75C16 4.74594 12.754 1.5 8.75 1.5C4.74593 1.5 1.5 4.74593 1.5 8.75C1.5 12.754 4.74594 16 8.75 16C12.754 16 16 12.754 16 8.75ZM8.75781 12L8.83496 12.0039C9.21302 12.0424 9.50781 12.3618 9.50781 12.75C9.50781 13.1382 9.21302 13.4576 8.83496 13.4961L8.75781 13.5H8.75C8.33579 13.5 8 13.1642 8 12.75C8 12.3358 8.33579 12 8.75 12H8.75781ZM7.33594 4.30078C7.91986 4.02373 8.5773 3.93197 9.21875 4.04199L9.49023 4.10059C10.1152 4.2656 10.6765 4.62025 11.0957 5.11816L11.2656 5.33789C11.6365 5.86692 11.8368 6.49969 11.8359 7.15039L11.8262 7.37012C11.7261 8.44628 10.9067 9.17092 10.3018 9.57422C9.95638 9.80444 9.61598 9.97352 9.36523 10.085C9.23883 10.1411 9.13221 10.1837 9.05566 10.2129C9.01743 10.2275 8.98634 10.2391 8.96387 10.2471C8.95271 10.251 8.94336 10.2545 8.93652 10.2568C8.93342 10.2579 8.93086 10.259 8.92871 10.2598C8.92756 10.2602 8.92566 10.2605 8.9248 10.2607L8.92383 10.2617C8.92362 10.2618 8.92315 10.2615 8.74023 9.71289L8.92383 10.2617C8.53097 10.3925 8.10556 10.18 7.97461 9.78711C7.84371 9.39437 8.0557 8.9701 8.44824 8.83887C8.45049 8.83809 8.45578 8.83616 8.46191 8.83398C8.47456 8.82949 8.49532 8.82186 8.52246 8.81152C8.57713 8.79069 8.6585 8.75855 8.75684 8.71484C8.95592 8.62635 9.21541 8.49569 9.46973 8.32617C10.0242 7.95649 10.3357 7.55211 10.3359 7.15039V7.14844L10.3301 7.00391C10.305 6.71466 10.2038 6.43701 10.0371 6.19922L9.94824 6.08398C9.72865 5.82315 9.43475 5.63722 9.10742 5.55078L8.96484 5.52051C8.6287 5.46287 8.28446 5.51098 7.97852 5.65625L7.84961 5.72363C7.51382 5.92102 7.2592 6.23127 7.12988 6.59863L5.71484 6.10156C5.96169 5.39985 6.44851 4.80759 7.08984 4.43066L7.33594 4.30078ZM7.12988 6.59863C6.99243 6.98938 6.56359 7.19507 6.17285 7.05762C5.78234 6.92012 5.57762 6.49216 5.71484 6.10156L7.12988 6.59863ZM17.5 8.75C17.5 13.5825 13.5825 17.5 8.75 17.5C3.9175 17.5 0 13.5825 0 8.75C6.44277e-08 3.91751 3.91751 6.44256e-08 8.75 0C13.5825 0 17.5 3.9175 17.5 8.75Z" fill="var(--fill-0, black)"/>
</svg>
