<svg preserveAspectRatio="none" width="100%" height="100%" overflow="visible" style="display: block;" viewBox="0 0 15.9 15.8" fill="none" xmlns="http://www.w3.org/2000/svg">
<path id="Vector" d="M15.9 3.7C15.9 3.8 15.7 4 15.6 4.1C15.5 4.1 15.3 4.2 15.2 4.2C15 4.2 14.8 4.2 14.7 4L13.7 3L12.4 4.3L14.5 6.4C14.5 6.4 14.7 6.6 14.7 6.7C14.7 6.7 14.7 6.9 14.7 7C14.7 7.1 14.7 7.2 14.7 7.3C14.7 7.3 14.6 7.5 14.5 7.6C14.5 7.6 14.3 7.7 14.2 7.8C14.2 7.8 14 7.8 13.9 7.8C13.8 7.8 13.7 7.8 13.6 7.8C13.6 7.8 13.4 7.7 13.4 7.6L7.4 13.6C7.2 13.9 6.8 14.1 6.5 14.2C6.1 14.3 5.8 14.3 5.4 14.2L3 13.8L1.2 15.6C1.2 15.6 1.1 15.7 1 15.8C1 15.8 0.8 15.8 0.7 15.8C0.6 15.8 0.5 15.8 0.4 15.8C0.4 15.8 0.2 15.7 0.2 15.6C0.2 15.6 0.1 15.4 0 15.4C0 15.4 0 15.2 0 15.1C0 15 0 14.9 0 14.8C0 14.7 -1.93715e-07 14.6 0.2 14.6L2 12.8L1.6 10.4C1.6 10 1.6 9.7 1.7 9.3C1.8 9 2 8.6 2.2 8.4L8.2 2.4C8 2.3 8 2.1 8 1.9C8 1.7 8 1.5 8.2 1.4C8.3 1.2 8.5 1.2 8.7 1.2C8.9 1.2 9.1 1.2 9.2 1.4L11.3 3.5L12.6 2.2L11.6 1.2C11.5 1.1 11.4 0.9 11.4 0.7C11.4 0.5 11.4 0.3 11.6 0.2C11.8 0.0999998 11.9 0 12.1 0C12.3 0 12.5 -1.93715e-07 12.7 0.2L15.6 3.1C15.7 3.2 15.8 3.3 15.8 3.5C15.8 3.7 15.8 3.8 15.8 3.9L15.9 3.7Z" fill="var(--fill-0, #1686A4)"/>
</svg>
