<svg preserveAspectRatio="none" width="100%" height="100%" overflow="visible" style="display: block;" viewBox="0 0 129.424 125.796" fill="none" xmlns="http://www.w3.org/2000/svg">
<path id="Vector" d="M95.1945 0.0303886C95.1945 0.0303886 73.6145 0.500389 63.9245 22.3904L59.0145 30.9204L6.02447 0.290389C6.02447 0.290389 -3.76553 15.1304 1.61447 33.1104C4.46447 42.6304 7.91447 50.2604 25.6345 61.1004L37.5945 68.0104L9.55447 116.36C9.55447 116.36 41.1545 135.64 61.9445 119.08C67.5045 114.65 71.1645 108.23 72.3945 101.23C72.3945 101.18 72.4145 101.12 72.4245 101.07C73.9745 92.0404 72.3645 74.2404 54.3045 63.5304L29.4745 48.9704C29.4745 48.9704 10.3145 40.0704 12.7345 18.4404L80.3245 57.3304C80.3245 57.3304 92.6445 64.9304 87.5845 79.4104L119.044 24.8004C119.044 24.8004 122.144 18.6304 129.424 18.3904C129.424 18.3904 119.614 -0.999611 95.2145 0.0403886L95.1945 0.0303886ZM60.1545 94.5704C60.6045 102.6 56.5745 108.47 50.2945 111.84C38.2845 118.28 26.7245 111.29 26.7245 111.29L48.1845 74.1204C57.6545 79.8704 59.7845 88.0304 60.1545 94.5704ZM90.7745 49.2704L69.5845 37.0404L76.3745 24.9804C78.6245 21.2004 81.7045 17.9604 85.4745 15.7004C98.2945 8.00039 110.104 15.7804 110.104 15.7804L90.7645 49.2704H90.7745Z" fill="var(--fill-0, #E31E49)"/>
</svg>
