<svg preserveAspectRatio="none" width="100%" height="100%" overflow="visible" style="display: block;" viewBox="0 0 16 16" fill="none" xmlns="http://www.w3.org/2000/svg">
<g id="Vector (Stroke)">
<path d="M7.50592 5.2729V2.23604C7.50592 2.03412 7.50593 1.83283 7.48391 1.65613L7.4531 1.48116C7.37012 1.13419 7.19247 0.816892 6.9403 0.564517C6.71957 0.343641 6.44908 0.180141 6.15241 0.0869383L6.02256 0.0506247C5.80178 -4.86588e-05 5.55652 -2.32739e-05 5.28863 4.45109e-06L5.26988 5.7516e-06H2.23604C2.03334 1.85332e-06 1.83456 -7.20599e-07 1.65723 0.022014L1.48116 0.0528255C1.13432 0.135794 0.816836 0.312502 0.564516 0.564517C0.343684 0.785133 0.180195 1.0559 0.0869375 1.35241L0.0506239 1.48226C-5.86134e-05 1.70271 -2.9831e-05 1.94799 1.557e-06 2.21544L4.935e-06 2.23604V5.26878C1.66551e-06 5.53979 -1.47796e-06 5.79949 0.0528247 6.02366L0.0880379 6.15241C0.180989 6.4489 0.344007 6.71953 0.564516 6.94031C0.816706 7.1927 1.13531 7.37093 1.48226 7.4542C1.70727 7.50592 1.95808 7.50592 2.232 7.50592H5.26988C5.54396 7.50592 5.79728 7.50533 6.02366 7.452C6.37077 7.36906 6.68894 7.19253 6.94141 6.94031C7.19378 6.68813 7.37094 6.36948 7.4542 6.02256C7.50592 5.79759 7.50592 5.54676 7.50592 5.2729ZM6.05447 1.81789L6.06328 1.92683C6.06563 1.99779 6.06658 2.10959 6.06658 2.29657V5.20826C6.06658 5.39526 6.06577 5.50702 6.06328 5.578L6.05337 5.68804C6.03219 5.77662 5.98676 5.85796 5.92242 5.92242C5.87411 5.97074 5.81613 6.00882 5.75296 6.03357L5.68804 6.05337C5.65296 6.06082 5.58513 6.06657 5.20936 6.06658H2.29657C2.10941 6.06658 1.9978 6.06578 1.92683 6.06328L1.81679 6.05227L1.75186 6.03247C1.6885 6.00772 1.63084 5.96977 1.5824 5.92132C1.53394 5.87286 1.49599 5.81525 1.47126 5.75186L1.45145 5.68694C1.44408 5.65165 1.43824 5.58195 1.43824 5.20826V2.29657C1.43824 2.10949 1.43905 1.9978 1.44154 1.92683C1.44406 1.85532 1.449 1.83064 1.45255 1.81679C1.47376 1.72808 1.51902 1.64691 1.5835 1.5824C1.64724 1.51866 1.72819 1.4741 1.81569 1.45255C1.85197 1.44411 1.91706 1.43824 2.29657 1.43824H5.20936C5.39627 1.43825 5.50817 1.43905 5.57909 1.44155C5.64988 1.44405 5.67528 1.44903 5.68914 1.45255C5.77774 1.47382 5.85909 1.51907 5.92352 1.5835C5.98795 1.648 6.03327 1.72923 6.05447 1.81789Z" fill="var(--fill-0, black)"/>
<path fill-rule="evenodd" clip-rule="evenodd" d="M16 5.26878L16 5.28924C16 5.55674 16.0001 5.80208 15.9494 6.02256C15.8661 6.36949 15.6879 6.68814 15.4355 6.94031C15.1832 7.19235 14.8657 7.36902 14.5188 7.452C14.2925 7.50526 14.038 7.50592 13.764 7.50592H10.7279C10.4536 7.50592 10.2028 7.50592 9.97744 7.4542C9.63045 7.37096 9.31193 7.19271 9.0597 6.94031C8.83903 6.71945 8.6751 6.44907 8.58212 6.15241L8.54691 6.02366C8.49408 5.79947 8.49408 5.53982 8.49409 5.26878V2.23193C8.49409 1.95806 8.49408 1.70723 8.54581 1.48226L8.58102 1.35241C8.67427 1.05586 8.83884 0.785163 9.0597 0.564517C9.31209 0.312561 9.62946 0.135706 9.97634 0.0528255L10.1513 0.022014C10.3284 -2.14783e-06 10.5277 1.77286e-06 10.7301 5.75094e-06L13.764 5.7516e-06L13.7856 1.77286e-06C13.9839 -2.37345e-05 14.17 -4.76534e-05 14.3428 0.0209136L14.5177 0.0506247L14.6476 0.0869383C14.9441 0.180192 15.2149 0.343726 15.4355 0.564517C15.6875 0.816836 15.8642 1.13432 15.9472 1.48116L15.978 1.65613C16 1.8328 16 2.03415 16 2.23604V5.26878ZM14.5585 1.92683L14.5486 1.81789C14.5273 1.72914 14.4821 1.64803 14.4176 1.5835C14.3531 1.51898 14.272 1.47378 14.1832 1.45255C14.1693 1.44904 14.1436 1.44403 14.0732 1.44155C14.0022 1.43905 13.8906 1.43824 13.7034 1.43824H10.7906C10.4124 1.43825 10.3472 1.44415 10.3109 1.45255C10.2231 1.47404 10.1415 1.51851 10.0776 1.5824C10.0132 1.64688 9.96782 1.72818 9.94663 1.81679C9.94309 1.83064 9.93924 1.85532 9.93673 1.92683C9.93423 1.9978 9.93343 2.10947 9.93343 2.29657V5.20826C9.93343 5.58976 9.93902 5.65446 9.94663 5.68914C9.96804 5.77694 10.0126 5.85735 10.0765 5.92132C10.1248 5.96967 10.1827 6.00772 10.2459 6.03247L10.3109 6.05227L10.4209 6.06328C10.4918 6.06577 10.6037 6.06658 10.7906 6.06658H13.7034C13.8905 6.06658 14.0022 6.06563 14.0732 6.06328C14.1447 6.0609 14.1681 6.05671 14.1821 6.05337L14.247 6.03357C14.3104 6.00882 14.3681 5.97083 14.4165 5.92242C14.481 5.85792 14.5262 5.77672 14.5475 5.68804C14.5558 5.65159 14.5618 5.58572 14.5618 5.20826V2.29657C14.5618 2.10961 14.5608 1.99779 14.5585 1.92683Z" fill="var(--fill-0, black)"/>
<path fill-rule="evenodd" clip-rule="evenodd" d="M7.50592 10.729V13.77C7.50592 14.0413 7.50592 14.2923 7.4531 14.5166C7.37011 14.8636 7.19245 15.182 6.9403 15.4344C6.6881 15.6867 6.37061 15.864 6.02366 15.9472C5.7983 15.9989 5.5443 15.9989 5.2699 15.9989H2.2287C1.95742 15.9989 1.70664 15.9989 1.48226 15.9461C1.13534 15.8631 0.816868 15.6854 0.564516 15.4333C0.34388 15.2128 0.180153 14.9428 0.0869375 14.6465L0.0517243 14.5177C1.557e-06 14.2928 1.557e-06 14.0367 4.935e-06 13.7629L4.82573e-06 10.7214C-6.00658e-07 10.4503 -5.62533e-06 10.1994 0.0528247 9.97524L0.0880379 9.8465C0.180975 9.54999 0.34401 9.27939 0.564516 9.0586C0.8167 8.80621 1.13422 8.62798 1.48116 8.54471L1.65723 8.515C1.83624 8.49327 2.02954 8.49299 2.23604 8.49299H5.27774C5.54881 8.49298 5.79944 8.49298 6.02366 8.54581L6.15241 8.58212C6.44917 8.67508 6.72048 8.83789 6.94141 9.0586C7.16223 9.27927 7.32577 9.54993 7.41898 9.8465L7.4542 9.97524L7.48501 10.1502C7.50598 10.3225 7.50595 10.508 7.50592 10.7058L7.50592 10.729ZM6.06328 10.4209C6.06076 10.3494 6.05692 10.3258 6.05337 10.312C6.03219 10.2234 5.98673 10.1409 5.92242 10.0765C5.85822 10.0123 5.77736 9.9658 5.68914 9.94443C5.65436 9.93687 5.58902 9.93233 5.20936 9.93233H2.29657C2.10941 9.93233 1.9978 9.93313 1.92683 9.93563L1.81899 9.94553C1.73025 9.96677 1.64692 10.0131 1.5824 10.0776C1.51792 10.1421 1.47266 10.2233 1.45145 10.312C1.44409 10.3473 1.43824 10.4173 1.43824 10.7906V13.7023C1.43824 13.8895 1.43905 14.0011 1.44154 14.0721L1.45145 14.181L1.47236 14.247C1.49709 14.3104 1.53506 14.3681 1.5835 14.4165C1.648 14.481 1.72917 14.5262 1.81789 14.5475L1.92683 14.5574C1.99779 14.5597 2.10947 14.5607 2.29657 14.5607H5.20936C5.58866 14.5607 5.65281 14.5548 5.68914 14.5464L5.75406 14.5265C5.81731 14.5018 5.87515 14.4638 5.92352 14.4154C5.98798 14.3509 6.03326 14.2697 6.05447 14.181L6.06328 14.0721C6.06563 14.0011 6.06658 13.8894 6.06658 13.7023V10.7906C6.06658 10.6038 6.06577 10.4919 6.06328 10.4209Z" fill="var(--fill-0, black)"/>
<path fill-rule="evenodd" clip-rule="evenodd" d="M8.49409 10.729V13.7629C8.49408 14.0342 8.49408 14.2933 8.54691 14.5177C8.62989 14.8647 8.80756 15.182 9.0597 15.4344C9.31191 15.6867 9.6294 15.864 9.97634 15.9472L10.1513 15.978C10.3284 16 10.5192 16 10.7216 16H13.764C14.0352 16 14.2945 16 14.5188 15.9472C14.8655 15.864 15.1823 15.6865 15.4344 15.4344C15.6865 15.1823 15.864 14.8645 15.9472 14.5177C16 14.2933 16 14.0424 16 13.7711V10.7312C16 10.5292 16 10.3281 15.978 10.1513L15.9472 9.97634L15.912 9.8476C15.8191 9.55078 15.6561 9.27963 15.4355 9.0586C15.2149 8.83765 14.9442 8.67437 14.6476 8.58102L14.5177 8.54471C14.2927 8.49299 14.0419 8.49299 13.768 8.49299H10.7301C10.5277 8.49298 10.3284 8.49298 10.1513 8.515L9.97634 8.54581C9.62941 8.6287 9.3121 8.80658 9.0597 9.0586C8.83878 9.2793 8.67426 9.54986 8.58102 9.8465L8.54581 9.97634C8.49408 10.2013 8.49409 10.4552 8.49409 10.729ZM14.5486 10.312L14.5585 10.4209C14.5608 10.4919 14.5618 10.6039 14.5618 10.7906V13.7023C14.5618 14.0806 14.5558 14.1457 14.5475 14.1821C14.5262 14.2709 14.481 14.352 14.4165 14.4165C14.3681 14.4649 14.3104 14.5029 14.247 14.5276L14.1821 14.5475C14.1681 14.5508 14.1447 14.555 14.0732 14.5574C14.0022 14.5597 13.8905 14.5607 13.7034 14.5607H10.7906C10.6009 14.5607 10.49 14.5587 10.422 14.5563L10.3109 14.5464C10.2223 14.5251 10.1409 14.4798 10.0765 14.4154C10.0126 14.3515 9.96807 14.271 9.94663 14.1832C9.93902 14.1485 9.93343 14.0838 9.93343 13.7023V10.7906C9.93343 10.6038 9.93424 10.4919 9.93673 10.4209C9.93924 10.3494 9.94309 10.3247 9.94663 10.3109C9.96781 10.2223 10.0133 10.1409 10.0776 10.0765C10.1415 10.0125 10.223 9.9681 10.3109 9.94663C10.3472 9.93823 10.4123 9.93233 10.7906 9.93233H13.7034C13.8906 9.93233 14.0022 9.93313 14.0732 9.93563C14.1437 9.93811 14.1693 9.94312 14.1832 9.94663C14.272 9.96787 14.3531 10.0131 14.4176 10.0776C14.4821 10.1421 14.5273 10.2233 14.5486 10.312Z" fill="var(--fill-0, black)"/>
</g>
</svg>
