<svg preserveAspectRatio="none" width="100%" height="100%" overflow="visible" style="display: block;" viewBox="0 0 16 16" fill="none" xmlns="http://www.w3.org/2000/svg">
<g id="Vector (Stroke)">
<path d="M7.50592 5.2729V2.23605C7.50592 2.03412 7.50593 1.83283 7.48391 1.65613L7.4531 1.48116C7.37012 1.13419 7.19247 0.816894 6.94031 0.564519C6.71957 0.343642 6.44908 0.180142 6.15241 0.0869399L6.02256 0.0506263C5.80178 -4.7064e-05 5.55652 -2.1682e-05 5.28863 6.04306e-06L5.26988 7.34357e-06H2.23604C2.03334 1.59197e-06 1.83456 1.59197e-06 1.65723 0.0220156L1.48116 0.0528271C1.13432 0.135796 0.816838 0.312504 0.564518 0.564519C0.343686 0.785135 0.180196 1.05591 0.0869389 1.35241L0.0506253 1.48226C-5.57441e-05 1.70271 -2.83897e-05 1.94798 1.44286e-06 2.21542L6.37786e-06 2.23605V5.26878C1.44286e-06 5.53979 1.44286e-06 5.79949 0.0528262 6.02366L0.0880393 6.15241C0.18099 6.4489 0.344009 6.71953 0.564518 6.94031C0.816708 7.1927 1.13531 7.37093 1.48226 7.4542C1.70727 7.50592 1.95808 7.50592 2.23199 7.50592H5.26988C5.54396 7.50592 5.79728 7.50534 6.02366 7.452C6.37077 7.36906 6.68894 7.19253 6.94141 6.94031C7.19379 6.68813 7.37094 6.36948 7.4542 6.02256C7.50592 5.79759 7.50592 5.54676 7.50592 5.2729Z" fill="var(--fill-0, #1686A4)"/>
<path fill-rule="evenodd" clip-rule="evenodd" d="M16 5.26878L16 5.28924C16 5.55674 16.0001 5.80208 15.9494 6.02256C15.8661 6.36949 15.6879 6.68814 15.4355 6.94031C15.1832 7.19235 14.8657 7.36902 14.5188 7.452C14.2925 7.50526 14.038 7.50592 13.764 7.50592H10.7279C10.4536 7.50592 10.2028 7.50592 9.97744 7.4542C9.63045 7.37096 9.31193 7.19271 9.0597 6.94031C8.83903 6.71945 8.6751 6.44907 8.58212 6.15241L8.54691 6.02366C8.49408 5.79947 8.49408 5.53982 8.49409 5.26878V2.23193C8.49409 1.95806 8.49408 1.70723 8.54581 1.48226L8.58102 1.35241C8.67427 1.05586 8.83884 0.785165 9.0597 0.564519C9.31209 0.312562 9.62946 0.135708 9.97634 0.0528271L10.1513 0.0220156C10.3284 -5.55658e-07 10.5277 1.59197e-06 10.7301 7.34291e-06L13.764 7.34357e-06L13.7856 1.59197e-06C13.9839 -2.21461e-05 14.1701 -4.44135e-05 14.3428 0.0209152L14.5177 0.0506263L14.6476 0.0869399C14.9441 0.180194 15.2149 0.343727 15.4355 0.564519C15.6875 0.816838 15.8642 1.13433 15.9472 1.48116L15.978 1.65613C16 1.83278 16 2.03412 16 2.23599V5.26878Z" fill="var(--fill-0, #1686A4)"/>
<path fill-rule="evenodd" clip-rule="evenodd" d="M7.50592 10.729V13.77C7.50592 14.0413 7.50593 14.2923 7.4531 14.5166C7.37011 14.8636 7.19245 15.182 6.94031 15.4344C6.6881 15.6867 6.37061 15.864 6.02366 15.9472C5.7983 15.9989 5.5443 15.9989 5.2699 15.9989H2.2287C1.95743 15.9989 1.70664 15.9989 1.48226 15.9461C1.13534 15.8631 0.81687 15.6854 0.564518 15.4333C0.343881 15.2128 0.180154 14.9428 0.0869389 14.6465L0.0517257 14.5177C1.44286e-06 14.2928 1.44286e-06 14.0367 6.37786e-06 13.7629L6.2686e-06 10.7214C1.44318e-06 10.4504 -3.02376e-06 10.1994 0.0528262 9.97524L0.0880393 9.8465C0.180976 9.54999 0.344012 9.27939 0.564518 9.0586C0.816701 8.80621 1.13422 8.62798 1.48116 8.54471L1.65723 8.515C1.83625 8.49327 2.02955 8.49299 2.23604 8.49299H5.27775C5.54881 8.49298 5.79944 8.49298 6.02366 8.54581L6.15241 8.58212C6.44917 8.67508 6.72048 8.83789 6.94141 9.0586C7.16223 9.27927 7.32577 9.54993 7.41898 9.8465L7.4542 9.97524L7.48501 10.1502C7.50598 10.3225 7.50595 10.508 7.50592 10.7058L7.50592 10.729Z" fill="var(--fill-0, #1686A4)"/>
<path fill-rule="evenodd" clip-rule="evenodd" d="M8.49409 10.729V13.7629C8.49408 14.0342 8.49408 14.2933 8.54691 14.5177C8.62989 14.8647 8.80756 15.182 9.0597 15.4344C9.31191 15.6867 9.6294 15.864 9.97634 15.9472L10.1513 15.978C10.3284 16 10.5192 16 10.7216 16H13.764C14.0352 16 14.2945 16 14.5188 15.9472C14.8655 15.864 15.1823 15.6865 15.4344 15.4344C15.6865 15.1823 15.864 14.8645 15.9472 14.5177C16 14.2933 16 14.0424 16 13.7711V10.7312C16 10.5293 16 10.328 15.978 10.1513L15.9472 9.97634L15.912 9.8476C15.8191 9.55078 15.6561 9.27963 15.4355 9.0586C15.2149 8.83765 14.9442 8.67437 14.6476 8.58102L14.5177 8.54471C14.2927 8.49299 14.0419 8.49299 13.768 8.49299H10.7301C10.5277 8.49298 10.3284 8.49298 10.1513 8.515L9.97634 8.54581C9.62941 8.6287 9.3121 8.80658 9.0597 9.0586C8.83879 9.2793 8.67426 9.54986 8.58102 9.8465L8.54581 9.97634C8.49408 10.2013 8.49408 10.4552 8.49409 10.729Z" fill="var(--fill-0, #1686A4)"/>
</g>
</svg>
