<svg preserveAspectRatio="none" width="100%" height="100%" overflow="visible" style="display: block;" viewBox="0 0 17.5 17.5" fill="none" xmlns="http://www.w3.org/2000/svg">
<path id="Vector (Stroke)" d="M2.10894e-06 7.15039C2.10894e-06 6.66664 -0.00082491 6.25271 0.0302755 5.91406C0.0624876 5.56362 0.133506 5.22411 0.317385 4.90332L0.427736 4.72754C0.701775 4.33037 1.0871 4.01809 1.53223 3.81641L1.65723 3.76465C1.78614 3.71549 1.91768 3.67811 2.05274 3.65039C2.05297 3.64875 2.05348 3.64715 2.05371 3.64551C2.10635 3.27118 2.21315 2.75893 2.4336 2.23633C2.65392 1.71408 3.00135 1.15092 3.55078 0.716797C4.11147 0.27386 4.83976 0 5.75 0H11.75C11.7588 0 11.7676 0.00164955 11.7764 0.00195312C11.7802 0.00184415 11.7841 0.00107322 11.7881 0.000976562C11.8396 -0.000258773 11.9097 -0.00048546 11.9951 0.00292969C12.1656 0.00976137 12.4008 0.0303855 12.6787 0.0859375C13.2349 0.197179 13.9712 0.449097 14.7041 1.00586C16.1995 2.14217 17.5 4.40302 17.5 8.75C17.5 13.097 16.1995 15.3578 14.7041 16.4941C13.9712 17.0509 13.2349 17.3028 12.6787 17.4141C12.4008 17.4696 12.1656 17.4902 11.9951 17.4971C11.9097 17.5005 11.8396 17.5003 11.7881 17.499C11.7841 17.4989 11.7802 17.4982 11.7764 17.498L11.75 17.5H5.75C4.83976 17.5 4.11147 17.2261 3.55078 16.7832C3.00135 16.3491 2.65392 15.7859 2.4336 15.2637C2.26828 14.8718 2.16702 14.4856 2.10449 14.1592L2.05274 13.8486C1.91774 13.8209 1.78608 13.7845 1.65723 13.7354L1.53223 13.6836C1.08705 13.4819 0.701751 13.1696 0.427736 12.7725L0.317385 12.5967C0.133508 12.2759 0.0624859 11.9364 0.0302755 11.5859C-0.000823427 11.2473 2.10894e-06 10.8334 2.10894e-06 10.3496V7.15039ZM7.54981 13.9443H3.9502C3.82586 13.9443 3.70631 13.9427 3.5918 13.9424C3.63941 14.1729 3.71037 14.4293 3.81641 14.6807C3.97108 15.0473 4.18619 15.3739 4.48047 15.6064C4.76349 15.83 5.16046 16 5.75 16H8.83203C8.66741 15.7568 8.53596 15.5063 8.4336 15.2637C8.22978 14.7805 8.1239 14.3061 8.06738 13.9414C7.90542 13.9423 7.73293 13.9443 7.54981 13.9443ZM5 6.97266C5 6.55844 5.33579 6.22266 5.75 6.22266C6.16422 6.22266 6.5 6.55844 6.5 6.97266V8.41309L7.74805 9.52246L7.80274 9.57617C8.06023 9.85612 8.06865 10.2917 7.81055 10.582C7.55258 10.872 7.11961 10.9147 6.81153 10.6924L6.75196 10.6436L5.25196 9.31055C5.09184 9.16822 5 8.96423 5 8.75V6.97266ZM5.75 1.5C5.16046 1.5 4.76349 1.66999 4.48047 1.89355C4.18619 2.12608 3.97108 2.45274 3.81641 2.81934C3.71051 3.07035 3.63941 3.32635 3.5918 3.55664C3.70631 3.55637 3.82586 3.55566 3.9502 3.55566H7.54981C7.73292 3.55566 7.90542 3.5567 8.06738 3.55762C8.12394 3.1931 8.22996 2.71908 8.4336 2.23633C8.53596 1.99369 8.66741 1.74317 8.83203 1.5H5.75ZM1.5 10.3496C1.5 10.8613 1.50105 11.195 1.52442 11.4492C1.5467 11.6915 1.58506 11.7911 1.61914 11.8506L1.71289 11.9873C1.82078 12.1192 1.96861 12.2346 2.15137 12.3174L2.23633 12.3496C2.33303 12.3803 2.47062 12.4059 2.69043 12.4219C2.99045 12.4437 3.37913 12.4443 3.9502 12.4443H7.54981C8.12087 12.4443 8.50954 12.4437 8.80957 12.4219C9.10291 12.4006 9.24998 12.3621 9.34863 12.3174L9.51953 12.2246C9.67841 12.1219 9.80014 11.9914 9.88086 11.8506L9.90723 11.7969C9.93338 11.7324 9.95888 11.6309 9.97559 11.4492C9.99895 11.195 10 10.8613 10 10.3496V7.15039C10 6.63866 9.99895 6.30496 9.97559 6.05078C9.95888 5.86915 9.93338 5.76764 9.90723 5.70312L9.88086 5.64941C9.80015 5.50858 9.67843 5.37815 9.51953 5.27539L9.34863 5.18262C9.24998 5.13793 9.10292 5.09945 8.80957 5.07812C8.50954 5.05634 8.12087 5.05566 7.54981 5.05566H3.9502C3.37913 5.05566 2.99045 5.05634 2.69043 5.07812C2.47062 5.0941 2.33303 5.11969 2.23633 5.15039L2.15137 5.18262C1.96858 5.26542 1.82076 5.38084 1.71289 5.5127L1.61914 5.64941C1.58505 5.70889 1.5467 5.80852 1.52442 6.05078C1.50105 6.30496 1.5 6.63866 1.5 7.15039V10.3496ZM11.5 10.3496C11.5 10.8333 11.5008 11.2473 11.4697 11.5859C11.4415 11.8926 11.3833 12.1909 11.2461 12.4756L11.1826 12.5967C10.9413 13.0178 10.5815 13.358 10.1543 13.5908L9.96778 13.6836C9.83774 13.7425 9.70352 13.7832 9.56738 13.8174C9.61385 14.078 9.69075 14.3828 9.81641 14.6807C9.97108 15.0473 10.1862 15.3739 10.4805 15.6064C10.7575 15.8253 11.1438 15.991 11.7129 15.998C11.7447 15.9965 11.777 15.9964 11.8096 15.999H11.8086C11.8122 15.9992 11.8174 15.9998 11.8242 16C11.8459 16.0005 11.8835 16.0001 11.9346 15.998C12.0374 15.9939 12.1932 15.9805 12.3838 15.9424C12.765 15.8662 13.2789 15.6925 13.7959 15.2998C14.8003 14.5367 16 12.7994 16 8.75C16 4.70057 14.8003 2.96327 13.7959 2.2002C13.2789 1.80749 12.765 1.63383 12.3838 1.55762C12.1932 1.51954 12.0374 1.50607 11.9346 1.50195C11.8835 1.49992 11.8459 1.49948 11.8242 1.5H11.8086L11.8096 1.50098C11.777 1.50357 11.7447 1.50252 11.7129 1.50098C11.1438 1.50797 10.7575 1.67471 10.4805 1.89355C10.1862 2.12608 9.97108 2.45274 9.81641 2.81934C9.6909 3.11683 9.61386 3.4212 9.56738 3.68164C9.7036 3.71586 9.83767 3.75748 9.96778 3.81641L10.1543 3.90918C10.5815 4.14203 10.9413 4.48218 11.1826 4.90332L11.2461 5.02441C11.3833 5.30908 11.4415 5.60737 11.4697 5.91406C11.5008 6.25271 11.5 6.66664 11.5 7.15039V10.3496Z" fill="var(--fill-0, black)"/>
</svg>
