<svg preserveAspectRatio="none" width="100%" height="100%" overflow="visible" style="display: block;" viewBox="0 0 16.4 15.6929" fill="none" xmlns="http://www.w3.org/2000/svg">
<g id="Group">
<path id="Vector" d="M2.2 0.100391C1.64305 0.100391 1.10848 0.320822 0.714649 0.714648C0.320823 1.10847 0.100391 1.64305 0.100391 2.2V14.993C0.100417 15.1117 0.134972 15.2283 0.200977 15.327C0.266945 15.4255 0.360928 15.5023 0.470509 15.5477C0.580113 15.593 0.700882 15.604 0.817188 15.5809C0.933567 15.5576 1.04097 15.5008 1.12481 15.4168L3.97734 12.5633C4.14609 12.3945 4.3754 12.2997 4.61406 12.2996H14.2C14.757 12.2996 15.2915 12.0792 15.6854 11.6854C16.0792 11.2915 16.2996 10.757 16.2996 10.2V2.2C16.2996 1.64305 16.0792 1.10847 15.6854 0.714648C15.2915 0.320822 14.757 0.100391 14.2 0.100391H2.2ZM14.2 1.29961C14.4387 1.29961 14.6679 1.3945 14.8367 1.56328C15.0055 1.73206 15.1004 1.96131 15.1004 2.2V10.2C15.1004 10.4387 15.0055 10.6679 14.8367 10.8367C14.6679 11.0055 14.4387 11.1004 14.2 11.1004H4.61406C4.05717 11.1005 3.52342 11.3218 3.12969 11.7156L1.29961 13.5457V2.2C1.29961 1.96131 1.3945 1.73206 1.56328 1.56328C1.73206 1.3945 1.96131 1.29961 2.2 1.29961H14.2Z" fill="var(--fill-0, #0B0C0C)" stroke="var(--stroke-0, #0B0C0C)" stroke-width="0.2"/>
<path id="Vector_2" d="M7.26602 4.95977C7.07123 4.65642 6.78324 4.42449 6.44534 4.29883C6.10743 4.17318 5.73788 4.16059 5.39221 4.26296C5.04654 4.36533 4.74343 4.57713 4.52845 4.86652C4.31346 5.15591 4.19821 5.50727 4.20002 5.86777C4.2002 6.16631 4.28055 6.45932 4.43266 6.71619C4.58478 6.97306 4.80309 7.18437 5.06478 7.32804C5.32647 7.47171 5.62194 7.54246 5.92032 7.53292C6.21871 7.52337 6.50905 7.43387 6.76102 7.27377C6.63002 7.66277 6.38602 8.07777 5.98402 8.49377C5.90711 8.57334 5.86495 8.6802 5.86683 8.79084C5.8687 8.90149 5.91446 9.00686 5.99402 9.08377C6.07359 9.16069 6.18045 9.20284 6.29109 9.20097C6.40174 9.19909 6.50711 9.15334 6.58402 9.07377C8.07002 7.53377 7.87702 5.85977 7.26602 4.96177V4.95977ZM11.266 4.95977C11.0712 4.65642 10.7832 4.42449 10.4453 4.29883C10.1074 4.17318 9.73788 4.16059 9.39221 4.26296C9.04654 4.36533 8.74343 4.57713 8.52845 4.86652C8.31346 5.15591 8.19821 5.50727 8.20002 5.86777C8.2002 6.16631 8.28055 6.45932 8.43266 6.71619C8.58478 6.97306 8.80309 7.18437 9.06478 7.32804C9.32647 7.47171 9.62194 7.54246 9.92032 7.53292C10.2187 7.52337 10.509 7.43387 10.761 7.27377C10.63 7.66277 10.386 8.07777 9.98402 8.49377C9.90711 8.57334 9.86495 8.6802 9.86683 8.79084C9.8687 8.90149 9.91446 9.00686 9.99402 9.08377C10.0736 9.16069 10.1804 9.20284 10.2911 9.20097C10.4017 9.19909 10.5071 9.15334 10.584 9.07377C12.07 7.53377 11.877 5.85977 11.266 4.96177V4.95977Z" fill="var(--fill-0, #0B0C0C)"/>
</g>
</svg>
