<svg preserveAspectRatio="none" width="100%" height="100%" overflow="visible" style="display: block;" viewBox="0 0 17.5 17.5" fill="none" xmlns="http://www.w3.org/2000/svg">
<g id="Vector (Stroke)">
<path fill-rule="evenodd" clip-rule="evenodd" d="M1.04127e-06 10.3862C-2.26395e-07 10.4154 -1.47873e-06 10.4444 4.68774e-06 10.4732C1.14669e-05 10.5048 2.72125e-05 10.536 6.17615e-05 10.567C0.000372902 10.8458 0.00220907 11.0989 0.0127552 11.325C0.017016 11.4164 0.0226985 11.5034 0.0302766 11.5859C0.062487 11.9364 0.133509 12.2759 0.317386 12.5967L0.427738 12.7725C0.701752 13.1696 1.08705 13.4819 1.53223 13.6836L1.65723 13.7354C1.78608 13.7845 1.91775 13.8209 2.05274 13.8486L2.1045 14.1592C2.16703 14.4856 2.26828 14.8718 2.4336 15.2637C2.65392 15.7859 3.00135 16.3491 3.55078 16.7832C4.11147 17.2261 4.83976 17.5 5.75 17.5H11.75L11.7764 17.498M11.7646 0.00100399C11.7685 0.00141095 11.7724 0.00181712 11.7764 0.00195312ZM11.7764 0.00195312C11.7784 0.00172888 11.786 0.00102618 11.7881 0.000976562ZM7.54981 13.9443C7.67337 13.9443 7.7921 13.9434 7.90602 13.9425C7.96092 13.9421 8.01471 13.9417 8.06739 13.9414M8.83203 16H5.75C5.16046 16 4.76349 15.83 4.48047 15.6064C4.18619 15.3739 3.97108 15.0473 3.81641 14.6807C3.71037 14.4293 3.63941 14.1729 3.5918 13.9424C3.6426 13.9425 3.69438 13.9429 3.74714 13.9433M8.83203 16C8.66741 15.7568 8.53596 15.5063 8.4336 15.2637ZM8.4336 15.2637C8.22978 14.7805 8.1239 14.3061 8.06739 13.9414ZM5.75 6.22266C5.33579 6.22266 5 6.55844 5 6.97266V8.75C5 8.96423 5.09184 9.16822 5.25196 9.31055L6.75196 10.6436L6.81153 10.6924C7.11961 10.9147 7.55258 10.872 7.81055 10.582C8.06866 10.2917 8.06023 9.85612 7.80274 9.57617L7.74805 9.52246L6.5 8.41309V6.97266C6.5 6.55844 6.16422 6.22266 5.75 6.22266ZM11.8096 15.999C11.8075 15.9988 11.8112 15.9991 11.8096 15.999ZM11.8096 15.999L11.8242 16C11.8205 15.9999 11.8121 15.9992 11.8096 15.999Z" fill="var(--fill-0, #1686A4)"/>
<path fill-rule="evenodd" clip-rule="evenodd" d="M1.04127e-06 7.11375L3.15021e-06 7.15039V10.3496L1.04127e-06 10.3862C-1.81884e-05 10.8542 -3.46861e-05 11.2559 0.0302766 11.5859C0.062487 11.9364 0.133509 12.2759 0.317386 12.5967L0.427738 12.7725C0.701752 13.1696 1.08705 13.4819 1.53223 13.6836L1.65723 13.7354C1.78608 13.7845 1.91775 13.8209 2.05274 13.8486L2.1045 14.1592C2.16703 14.4856 2.26828 14.8718 2.4336 15.2637C2.65392 15.7859 3.00135 16.3491 3.55078 16.7832C4.11147 17.2261 4.83976 17.5 5.75 17.5H11.75L11.7764 17.498C11.7784 17.4983 11.786 17.499 11.7881 17.499C11.8396 17.5003 11.9097 17.5005 11.9951 17.4971C12.1656 17.4902 12.4008 17.4696 12.6787 17.4141C13.2349 17.3028 13.9712 17.0509 14.7041 16.4941C16.1995 15.3578 17.5 13.097 17.5 8.75C17.5 4.40302 16.1995 2.14217 14.7041 1.00586C13.9712 0.449097 13.2349 0.197179 12.6787 0.0859375C12.4008 0.0303855 12.1656 0.00976137 11.9951 0.00292969C11.9097 -0.00048546 11.8396 -0.000258773 11.7881 0.000976562C11.786 0.00102618 11.7784 0.00172888 11.7764 0.00195312C11.7724 0.00181712 11.7685 0.00141095 11.7646 0.00100399C11.7597 0.000502792 11.7549 0 11.75 0H5.75C4.83977 0 4.11147 0.27386 3.55078 0.716797C3.00135 1.15092 2.65392 1.71408 2.4336 2.23633C2.21315 2.75893 2.10538 3.27606 2.05274 3.65039C1.91768 3.67811 1.78614 3.71549 1.65723 3.76465L1.53223 3.81641C1.0871 4.01809 0.701776 4.33037 0.427738 4.72754L0.317386 4.90332C0.133507 5.22411 0.0624887 5.56362 0.0302766 5.91406C-3.48258e-05 6.24412 -1.8263e-05 6.64573 1.04127e-06 7.11375ZM11.5 10.3496L11.5 10.3862C11.5 10.8542 11.5 11.2559 11.4697 11.5859C11.4415 11.8926 11.3833 12.1909 11.2461 12.4756L11.1826 12.5967C10.9413 13.0178 10.5815 13.358 10.1543 13.5908L9.96778 13.6836C9.83774 13.7425 9.70352 13.7832 9.56739 13.8174C9.61385 14.078 9.69075 14.3828 9.81641 14.6807C9.97108 15.0473 10.1862 15.3739 10.4805 15.6064C10.7575 15.8253 11.1438 15.991 11.7129 15.998C11.7447 15.9965 11.777 15.9964 11.8096 15.999L11.8242 16C11.8459 16.0005 11.8835 16.0001 11.9346 15.998C12.0374 15.9939 12.1932 15.9805 12.3838 15.9424C12.765 15.8662 13.2789 15.6925 13.7959 15.2998C14.8003 14.5367 16 12.7994 16 8.75C16 4.70057 14.8003 2.96327 13.7959 2.2002C13.2789 1.80749 12.765 1.63383 12.3838 1.55762C12.1932 1.51954 12.0374 1.50607 11.9346 1.50195C11.8835 1.49992 11.8459 1.49948 11.8242 1.5H11.8086C11.776 1.5026 11.7447 1.50252 11.7129 1.50098C11.1438 1.50797 10.7575 1.67471 10.4805 1.89355C10.1862 2.12608 9.97108 2.45274 9.81641 2.81934C9.69091 3.11683 9.61386 3.4212 9.56739 3.68164C9.7036 3.71586 9.83767 3.75748 9.96778 3.81641L10.1543 3.90918C10.5815 4.14203 10.9413 4.48218 11.1826 4.90332L11.2461 5.02441C11.3833 5.30908 11.4415 5.60737 11.4697 5.91406C11.5 6.2441 11.5 6.64571 11.5 7.11368L11.5 7.15039V10.3496Z" fill="var(--fill-0, #1686A4)"/>
</g>
</svg>
