<svg preserveAspectRatio="none" width="100%" height="100%" overflow="visible" style="display: block;" viewBox="0 0 12.5 15.5" fill="none" xmlns="http://www.w3.org/2000/svg">
<path id="Vector (Stroke)" fill-rule="evenodd" clip-rule="evenodd" d="M0 13.9727C0.000105121 14.3845 0.149722 14.7755 0.410156 15.0605C0.670112 15.3449 1.01795 15.5 1.375 15.5H11.125C11.4821 15.5 11.8299 15.3449 12.0898 15.0605C12.3503 14.7755 12.4999 14.3845 12.5 13.9727V5.45117C12.4999 5.03935 12.3503 4.64828 12.0898 4.36328L8.50293 0.439453C8.27552 0.190612 7.9811 0.0404474 7.67188 0.00683594L7.53809 0H1.375C1.01795 0 0.670112 0.155057 0.410156 0.439453C0.149722 0.724482 0.00010515 1.11552 0 1.52734V13.9727ZM1.125 14.2227H10.5195L3.88086 7.72168L1.19141 10.6191L1.125 10.6914V14.2227ZM11.375 13.374V10.707L8.35938 7.72656L8.18359 7.91797L7.05957 9.14844L11.375 13.374ZM7.72363 1.35938L7.64844 1.27734H1.125V8.93066L3.84473 6L6.01855 8.12891L6.2041 8.30957L6.37891 8.11914L7.94922 6.40137L8.31934 5.99512L11.375 9.01465V5.35449L11.3096 5.28223L7.72363 1.35938Z" fill="var(--fill-0, black)"/>
</svg>
