<svg preserveAspectRatio="none" width="100%" height="100%" overflow="visible" style="display: block;" viewBox="0 0 17.159 15.839" fill="none" xmlns="http://www.w3.org/2000/svg">
<path id="Vector" d="M15.8391 0H1.31993C0.96986 0 0.634131 0.139063 0.386597 0.386597C0.139063 0.634131 0 0.96986 0 1.31993V11.8793C0 12.2294 0.139063 12.5651 0.386597 12.8127C0.634131 13.0602 0.96986 13.1993 1.31993 13.1993H6.30512L7.43366 15.1742C7.54913 15.3762 7.71592 15.544 7.91715 15.6608C8.11837 15.7775 8.34688 15.839 8.57952 15.839C8.81216 15.839 9.04066 15.7775 9.24189 15.6608C9.44311 15.544 9.60991 15.3762 9.72538 15.1742L10.8539 13.1993H15.8391C16.1892 13.1993 16.5249 13.0602 16.7724 12.8127C17.02 12.5651 17.159 12.2294 17.159 11.8793V1.31993C17.159 0.96986 17.02 0.634131 16.7724 0.386597C16.5249 0.139063 16.1892 0 15.8391 0ZM11.2194 8.57952H5.93967C5.76463 8.57952 5.59677 8.50999 5.473 8.38622C5.34924 8.26245 5.2797 8.09459 5.2797 7.91956C5.2797 7.74452 5.34924 7.57666 5.473 7.45289C5.59677 7.32912 5.76463 7.25959 5.93967 7.25959H11.2194C11.3944 7.25959 11.5623 7.32912 11.686 7.45289C11.8098 7.57666 11.8793 7.74452 11.8793 7.91956C11.8793 8.09459 11.8098 8.26245 11.686 8.38622C11.5623 8.50999 11.3944 8.57952 11.2194 8.57952ZM11.2194 5.93967H5.93967C5.76463 5.93967 5.59677 5.87014 5.473 5.74637C5.34924 5.6226 5.2797 5.45474 5.2797 5.2797C5.2797 5.10467 5.34924 4.93681 5.473 4.81304C5.59677 4.68927 5.76463 4.61974 5.93967 4.61974H11.2194C11.3944 4.61974 11.5623 4.68927 11.686 4.81304C11.8098 4.93681 11.8793 5.10467 11.8793 5.2797C11.8793 5.45474 11.8098 5.6226 11.686 5.74637C11.5623 5.87014 11.3944 5.93967 11.2194 5.93967Z" fill="var(--fill-0, white)"/>
</svg>
