<svg preserveAspectRatio="none" width="100%" height="100%" overflow="visible" style="display: block;" viewBox="0 0 16 16" fill="none" xmlns="http://www.w3.org/2000/svg">
<path id="Vector" d="M7.27273 12.3636H8.72727V14.5455H7.27273V12.3636ZM10.9091 14.5455V16H5.09091V14.5455H10.9091ZM13.8182 12.3636H2.18182C1.60334 12.3631 1.04872 12.133 0.639678 11.724C0.230633 11.3149 0.000577611 10.7603 0 10.1818V2.18182C0.000577611 1.60334 0.230633 1.04872 0.639678 0.639678C1.04872 0.230633 1.60334 0.000577611 2.18182 0H13.8182C14.3967 0.000577611 14.9513 0.230633 15.3603 0.639678C15.7694 1.04872 15.9994 1.60334 16 2.18182V10.1818C15.9994 10.7603 15.7694 11.3149 15.3603 11.724C14.9513 12.133 14.3967 12.3631 13.8182 12.3636ZM2.18182 1.45455C1.98893 1.45455 1.80395 1.53117 1.66756 1.66756C1.53117 1.80395 1.45455 1.98893 1.45455 2.18182V10.1818C1.45455 10.3747 1.53117 10.5597 1.66756 10.6961C1.80395 10.8325 1.98893 10.9091 2.18182 10.9091H13.8182C14.0111 10.9091 14.1961 10.8325 14.3324 10.6961C14.4688 10.5597 14.5455 10.3747 14.5455 10.1818V2.18182C14.5455 1.98893 14.4688 1.80395 14.3324 1.66756C14.1961 1.53117 14.0111 1.45455 13.8182 1.45455H2.18182Z" fill="var(--fill-0, #0B0C0C)"/>
</svg>
