<svg preserveAspectRatio="none" width="100%" height="100%" overflow="visible" style="display: block;" viewBox="0 0 14.5 16.1" fill="none" xmlns="http://www.w3.org/2000/svg">
<path id="Vector" d="M12.5 2.2H11.7V0.7C11.7 0.3 11.4 0 11 0C10.6 0 10.3 0.3 10.3 0.7V2.2H4.4V0.7C4.4 0.3 4.1 0 3.7 0C3.3 0 3 0.3 3 0.7V2.2H2.2C1 2.2 0 3.2 0 4.4V13.9C0 15.1 1 16.1 2.2 16.1H12.4C13.6 16.1 14.5 15.1 14.5 13.9V4.4C14.5 3.2 13.5 2.2 12.4 2.2H12.5ZM1.5 5.8V4.3C1.5 3.9 1.8 3.5 2.3 3.5H12.5C12.9 3.5 13.3 3.8 13.3 4.3V5.8H1.5Z" fill="var(--fill-0, #1686A4)"/>
</svg>
