<svg preserveAspectRatio="none" width="100%" height="100%" overflow="visible" style="display: block;" viewBox="0 0 15.5 15.5" fill="none" xmlns="http://www.w3.org/2000/svg">
<path id="Vector" d="M15.1 5.8C14.7 4.9 14.1 4.2 13.3 3.7C12.7 3.3 12.1 3.1 11.4 3V1.5C11.4 1.1 11.2 0.7 11 0.4C10.8 0.1 10.3 0 9.9 0H1.5C1.1 0 0.7 0.2 0.4 0.4C0.0999996 0.6 0 1.1 0 1.5V13.9C0 14.3 0.2 14.7 0.4 15C0.7 15.3 1.1 15.5 1.5 15.5H10C10.4 15.5 10.8 15.3 11.1 15C11.4 14.7 11.5 14.3 11.5 13.9V12.4H11.7C12.6 12.2 13.4 11.8 14.1 11.1C14.5 10.6 14.9 10.1 15.1 9.6C15.3 9 15.4 8.5 15.5 7.9C15.5 7.2 15.4 6.6 15.1 6V5.8ZM11.3 10.8C10.7 10.9 10 10.8 9.4 10.6C8.8 10.4 8.3 9.9 7.9 9.4C7.5 8.9 7.4 8.2 7.4 7.6C7.4 7 7.7 5.9 8.4 5.3C8.8 4.9 9.4 4.6 9.9 4.4V7.6C9.9 7.8 9.9 8 10.1 8.1L12.3 10.3C12 10.5 11.6 10.7 11.2 10.7L11.3 10.8ZM13.9 7.6C13.9 7.8 13.9 8 13.9 8.2C13.9 8.6 13.7 9 13.5 9.3L11.5 7.3V4.4C12.1 4.5 12.6 4.8 13 5.3C13.6 5.9 14 6.7 14 7.6H13.9Z" fill="var(--fill-0, #1686A4)"/>
</svg>
