<svg preserveAspectRatio="none" width="100%" height="100%" overflow="visible" style="display: block;" viewBox="0 0 15 18" fill="none" xmlns="http://www.w3.org/2000/svg">
<path id="Vector" fill-rule="evenodd" clip-rule="evenodd" d="M7.09305 0C6.64353 0 6.27915 0.366316 6.27915 0.818182V1.63636H5.87218C3.62471 1.63636 1.80266 3.46766 1.80266 5.72707V8.18182C1.80266 8.78539 1.61318 9.46816 1.3122 10.1576C1.01453 10.8394 0.629638 11.4786 0.289963 11.9814C-0.32823 12.8965 0.0545331 14.3428 1.31892 14.5721C2.14568 14.722 3.3141 14.9003 4.68923 15.0158C4.68759 15.0558 4.68676 15.0959 4.68676 15.1364C4.68676 16.7179 5.96213 18 7.53541 18C9.10869 18 10.3841 16.7179 10.3841 15.1364C10.3841 15.094 10.3832 15.0518 10.3814 15.0098C11.7259 14.8942 12.8685 14.7193 13.681 14.5721C14.9454 14.3428 15.3282 12.8965 14.7101 11.9814C14.3703 11.4786 13.9854 10.8394 13.6878 10.1576C13.3868 9.46816 13.1973 8.78539 13.1973 8.18182V5.72707C13.1973 3.46766 11.3753 1.63636 9.12781 1.63636H8.72086V0.818182C8.72086 0.366316 8.35648 0 7.90696 0H7.09305ZM7.5 15.1364C7.91615 15.1364 8.32384 15.128 8.72062 15.113C8.72705 15.7711 8.19516 16.328 7.53541 16.328C6.87712 16.328 6.3445 15.7727 6.35012 15.1157C6.7246 15.129 7.1086 15.1364 7.5 15.1364ZM5.87218 3.27273C4.5236 3.27273 3.43047 4.37153 3.43047 5.72707V8.18182C3.43047 9.10096 3.15007 10.0197 2.80278 10.8152C2.4522 11.6182 2.01044 12.3473 1.63663 12.9007C1.62832 12.913 1.62444 12.9247 1.62313 12.9365C1.62196 12.9471 1.62295 12.9569 1.62497 12.9647C2.91316 13.1975 5.05865 13.5 7.5 13.5C9.94131 13.5 12.0868 13.1975 13.375 12.9647C13.377 12.9569 13.378 12.9471 13.3769 12.9365C13.3755 12.9247 13.3717 12.913 13.3634 12.9007C12.9895 12.3473 12.5478 11.6182 12.1972 10.8152C11.8499 10.0197 11.5695 9.10096 11.5695 8.18182V5.72707C11.5695 4.37153 10.4764 3.27273 9.12781 3.27273H5.87218Z" fill="var(--fill-0, white)"/>
</svg>
