<svg preserveAspectRatio="none" width="100%" height="100%" overflow="visible" style="display: block;" viewBox="0 0 19.1406 17.6055" fill="none" xmlns="http://www.w3.org/2000/svg">
<path id="Vector (Stroke)" d="M9.49609 0.00293037C10.2518 -0.0262833 11.0787 0.161518 11.6914 0.629883H11.6924L11.79 0.717774C11.88 0.809638 11.9435 0.907317 11.9717 0.950196C12.0309 1.0402 12.094 1.14687 12.1553 1.25684C12.2789 1.4787 12.42 1.75463 12.5557 2.02832C12.8265 2.57483 13.0982 3.15922 13.1855 3.3418L13.6689 4.37695C14.1443 5.41608 14.5974 6.46542 15.0479 7.49414L16.0215 9.74805C16.9846 12.01 17.9122 14.2952 18.7656 16.5938L19.1406 17.6055H14.71L14.4873 17.3672C14.3354 17.2047 14.2482 17.0299 14.1943 16.9053C14.1675 16.8431 14.1446 16.782 14.1279 16.7383C14.1096 16.6901 14.0975 16.66 14.0859 16.6328L13.7715 15.8867C13.0467 14.1428 12.385 12.3738 11.7168 10.6328C11.0145 8.80301 10.3005 6.99801 9.4873 5.24023C7.72233 9.15172 6.05293 13.1013 4.58008 17.1133L4.39941 17.6055H0L0.355469 16.6045C1.01695 14.7417 1.78557 12.9142 2.54395 11.1162L3.07422 9.86914C3.60851 8.62266 4.15464 7.37867 4.70898 6.14258L5.20215 4.99219C5.4012 4.52435 5.62941 3.99399 5.86523 3.47363C6.10032 2.95492 6.34845 2.4365 6.58887 1.99316C6.8191 1.56863 7.07718 1.14632 7.3418 0.873048L7.45117 0.766602C8.01525 0.253334 8.78896 0.0303416 9.49609 0.00293037ZM9.55371 1.50195C9.11055 1.51915 8.74195 1.65056 8.50977 1.83496L8.41895 1.91699C8.3093 2.03029 8.13332 2.2911 7.90723 2.70801C7.69141 3.10598 7.4603 3.58781 7.23145 4.09277C7.00317 4.59646 6.78133 5.11395 6.58301 5.58008L6.07715 6.75586C5.52618 7.98443 4.98408 9.22128 4.45312 10.46L3.92578 11.6992C3.30536 13.1702 2.69204 14.6316 2.13672 16.1055H3.35645C4.97985 11.7354 6.82327 7.44621 8.75977 3.21582L8.84082 3.03906L8.99707 2.92383L9.07617 2.87207C9.46936 2.64537 9.83173 2.87906 9.875 2.9082C9.97104 2.97297 10.0327 3.04693 10.0537 3.07227C10.1071 3.13658 10.1516 3.20618 10.1787 3.25098C10.2394 3.35124 10.3055 3.47744 10.3633 3.59082L10.6172 4.11231V4.11328L10.9619 4.85254C11.7515 6.58233 12.445 8.3444 13.1172 10.0957C13.7919 11.8536 14.4431 13.595 15.1553 15.3086L15.4648 16.041V16.042L15.4902 16.1055H16.9785C16.2422 14.1735 15.456 12.2487 14.6416 10.3359L13.6738 8.0957C13.219 7.05703 12.7719 6.02221 12.3057 5.00293L11.832 3.98926C11.7335 3.78328 11.4771 3.22941 11.2119 2.69434C11.0798 2.42765 10.9507 2.17745 10.8447 1.98731C10.7945 1.89726 10.7535 1.82934 10.7236 1.7832C10.4519 1.60198 10.0247 1.4837 9.55371 1.50195Z" fill="var(--fill-0, #0B0C0C)"/>
</svg>
