<svg preserveAspectRatio="none" width="100%" height="100%" overflow="visible" style="display: block;" viewBox="0 0 16.8729 12.3784" fill="none" xmlns="http://www.w3.org/2000/svg">
<path id="Vector" d="M3.94485 7.02059C3.94675 7.05869 3.94089 7.09678 3.92761 7.13254C3.91434 7.16831 3.89392 7.20099 3.86761 7.22862C3.8413 7.25624 3.80965 7.27823 3.77458 7.29323C3.7395 7.30824 3.70174 7.31595 3.6636 7.3159H0.561409C0.43445 7.3161 0.311159 7.27333 0.211586 7.19457C0.112012 7.1158 0.0420135 7.00567 0.0129716 6.88208C-0.00511209 6.79748 -0.00427844 6.70993 0.0154129 6.6257C0.0351042 6.54146 0.0731667 6.46262 0.126878 6.39481C0.62315 5.73667 1.28161 5.21848 2.03797 4.89083C1.7059 4.58806 1.45122 4.21014 1.29524 3.7887C1.13927 3.36727 1.08655 2.91459 1.1415 2.4686C1.19644 2.0226 1.35746 1.59626 1.61106 1.22528C1.86466 0.854308 2.20346 0.549501 2.59909 0.33639C2.99471 0.12328 3.43564 0.00806934 3.88495 0.000408767C4.33425 -0.0072518 4.77885 0.0928603 5.18151 0.292361C5.58417 0.491861 5.93317 0.784941 6.19926 1.14705C6.46536 1.50917 6.64082 1.92977 6.71094 2.37364C6.71999 2.43333 6.7093 2.49434 6.68049 2.54739C6.65168 2.60045 6.60633 2.64264 6.55133 2.66754C5.77114 3.02823 5.11039 3.60456 4.64706 4.32852C4.18373 5.05248 3.93715 5.89387 3.93641 6.7534C3.93641 6.8434 3.93641 6.932 3.94485 7.02059ZM16.7417 6.39411C16.2466 5.73673 15.5896 5.21882 14.8348 4.89083C15.1669 4.58806 15.4216 4.21014 15.5776 3.7887C15.7335 3.36727 15.7863 2.91459 15.7313 2.4686C15.6764 2.0226 15.5154 1.59626 15.2618 1.22528C15.0082 0.854308 14.6694 0.549501 14.2737 0.33639C13.8781 0.12328 13.4372 0.00806934 12.9879 0.000408767C12.5386 -0.0072518 12.094 0.0928603 11.6913 0.292361C11.2886 0.491861 10.9397 0.784941 10.6736 1.14705C10.4075 1.50917 10.232 1.92977 10.1619 2.37364C10.1528 2.43333 10.1635 2.49434 10.1923 2.54739C10.2211 2.60045 10.2665 2.64264 10.3215 2.66754C11.1017 3.02823 11.7624 3.60456 12.2258 4.32852C12.6891 5.05248 12.9357 5.89387 12.9364 6.7534C12.9364 6.8434 12.9364 6.932 12.928 7.02059C12.9261 7.05869 12.9319 7.09678 12.9452 7.13254C12.9585 7.16831 12.9789 7.20099 13.0052 7.22862C13.0315 7.25624 13.0632 7.27823 13.0982 7.29323C13.1333 7.30824 13.1711 7.31595 13.2092 7.3159H16.3114C16.4384 7.3161 16.5617 7.27333 16.6612 7.19457C16.7608 7.1158 16.8308 7.00567 16.8598 6.88208C16.878 6.79733 16.8772 6.70959 16.8574 6.62521C16.8376 6.54083 16.7993 6.46189 16.7452 6.39411H16.7417ZM10.4839 9.4302C11.044 9.00127 11.4556 8.40762 11.6608 7.73269C11.8661 7.05775 11.8547 6.33547 11.6282 5.66735C11.4018 4.99923 10.9717 4.41886 10.3983 4.00782C9.82501 3.59677 9.13729 3.37572 8.43184 3.37572C7.72639 3.37572 7.03867 3.59677 6.46534 4.00782C5.89201 4.41886 5.46189 4.99923 5.23544 5.66735C5.00899 6.33547 4.9976 7.05775 5.20285 7.73269C5.40811 8.40762 5.81969 9.00127 6.37977 9.4302C5.38593 9.86081 4.55605 10.5983 4.01164 11.5347C3.96227 11.6202 3.93628 11.7172 3.93628 11.8159C3.93629 11.9147 3.96229 12.0117 4.01168 12.0972C4.06106 12.1827 4.13209 12.2537 4.21761 12.3031C4.30314 12.3525 4.40016 12.3784 4.49891 12.3784H12.3739C12.4727 12.3784 12.5697 12.3525 12.6552 12.3031C12.7407 12.2537 12.8118 12.1827 12.8611 12.0972C12.9105 12.0117 12.9365 11.9147 12.9365 11.8159C12.9365 11.7172 12.9105 11.6202 12.8612 11.5347C12.3156 10.5977 11.4842 9.86015 10.4888 9.4302H10.4839Z" fill="var(--fill-0, #899091)"/>
</svg>
