<svg preserveAspectRatio="none" width="100%" height="100%" overflow="visible" style="display: block;" viewBox="0 0 14.5379 13.8057" fill="none" xmlns="http://www.w3.org/2000/svg">
<path id="Vector (Stroke)" d="M13.1664 2.14827C13.1663 1.71923 12.8178 1.37147 12.3887 1.37147H2.14827C1.71933 1.37166 1.37165 1.71935 1.37147 2.14827V11.6575C1.37151 12.0865 1.71924 12.4341 2.14827 12.4343H12.3887C12.8179 12.4343 13.1664 12.0866 13.1664 11.6575V2.14827ZM14.5379 11.6575C14.5379 12.8441 13.5754 13.8057 12.3887 13.8057H2.14827C0.961812 13.8055 4.14346e-05 12.844 0 11.6575V2.14827C0.000187455 0.961897 0.961902 0.000192988 2.14827 0H12.3887C13.5753 0 14.5377 0.961778 14.5379 2.14827V11.6575Z" fill="var(--fill-0, #0B0C0C)"/>
</svg>
