<svg preserveAspectRatio="none" width="100%" height="100%" overflow="visible" style="display: block;" viewBox="0 0 11.5228 11.8676" fill="none" xmlns="http://www.w3.org/2000/svg">
<g id="Group">
<path id="Vector (Stroke)" d="M11.0117 11.3558C11.3393 11.0281 11.5228 10.5833 11.5228 10.1201V6.10581C11.5228 5.7951 11.2864 5.53946 10.9837 5.50881L10.9225 5.50555C10.5914 5.50575 10.3223 5.77448 10.3223 6.10581V10.1201C10.3223 10.2652 10.2646 10.4043 10.1621 10.5069C10.0724 10.5965 9.95505 10.6519 9.83008 10.6644L9.77604 10.667H1.7474C1.60234 10.667 1.46322 10.6094 1.36068 10.5069C1.25814 10.4043 1.20052 10.2652 1.20052 10.1201V6.10581C1.20052 5.77444 0.931631 5.50555 0.60026 5.50555C0.26889 5.50555 0 5.77444 0 6.10581V10.1201C0 10.5835 0.184099 11.0282 0.511719 11.3558C0.839325 11.6834 1.28411 11.8675 1.7474 11.8675H9.77604C10.2393 11.8675 10.6841 11.6834 11.0117 11.3558Z" fill="var(--fill-0, #5D5D5D)"/>
<path id="Vector (Stroke)_2" d="M5.16144 6.97629V0.60026C5.16148 0.268947 5.43034 4.96884e-08 5.7617 4.96884e-08C6.09306 4.96884e-08 6.36191 0.268947 6.36196 0.60026V6.97581L7.69429 5.67623C7.93141 5.44508 8.31117 5.44945 8.5426 5.68665C8.77402 5.92395 8.76859 6.30368 8.53153 6.53496L6.18062 8.82923C5.97661 9.02816 5.66683 9.05238 5.43648 8.90345L5.42867 8.89824L5.35054 8.83639L5.34273 8.82923L2.99182 6.53496C2.75475 6.30368 2.74933 5.92394 2.98075 5.68665C3.21218 5.44944 3.59194 5.44509 3.82906 5.67623L5.16144 6.97629Z" fill="var(--fill-0, #5D5D5D)"/>
</g>
</svg>
