<svg preserveAspectRatio="none" width="100%" height="100%" overflow="visible" style="display: block;" viewBox="0 0 24 24" fill="none" xmlns="http://www.w3.org/2000/svg">
<g id="Icon_MenuBar">
<g id="Vector (Stroke)">
<path d="M11.5059 9.2729V6.23604C11.5059 6.03412 11.5059 5.83283 11.4839 5.65613L11.4531 5.48116C11.3701 5.13419 11.1925 4.81689 10.9403 4.56452C10.7196 4.34364 10.4491 4.18014 10.1524 4.08694L10.0226 4.05062C9.80178 3.99995 9.55652 3.99998 9.28863 4L9.26988 4.00001H6.23604C6.03334 4 5.83456 4 5.65723 4.02201L5.48116 4.05283C5.13432 4.13579 4.81684 4.3125 4.56452 4.56452C4.34368 4.78513 4.18019 5.0559 4.08694 5.35241L4.05062 5.48226C3.99994 5.70271 3.99997 5.94799 4 6.21544L4 6.23604V9.26878C4 9.53979 4 9.79949 4.05282 10.0237L4.08804 10.1524C4.18099 10.4489 4.34401 10.7195 4.56452 10.9403C4.81671 11.1927 5.13531 11.3709 5.48226 11.4542C5.70727 11.5059 5.95808 11.5059 6.232 11.5059H9.26988C9.54396 11.5059 9.79727 11.5053 10.0237 11.452C10.3708 11.3691 10.6889 11.1925 10.9414 10.9403C11.1938 10.6881 11.3709 10.3695 11.4542 10.0226C11.5059 9.79759 11.5059 9.54676 11.5059 9.2729ZM10.0545 5.81789L10.0633 5.92683C10.0656 5.99779 10.0666 6.10959 10.0666 6.29657V9.20826C10.0666 9.39526 10.0658 9.50702 10.0633 9.578L10.0534 9.68804C10.0322 9.77662 9.98676 9.85795 9.92242 9.92242C9.87411 9.97074 9.81612 10.0088 9.75296 10.0336L9.68803 10.0534C9.65296 10.0608 9.58513 10.0666 9.20936 10.0666H6.29657C6.10941 10.0666 5.9978 10.0658 5.92683 10.0633L5.81679 10.0523L5.75186 10.0325C5.6885 10.0077 5.63084 9.96976 5.5824 9.92132C5.53394 9.87286 5.49599 9.81525 5.47126 9.75186L5.45145 9.68694C5.44408 9.65165 5.43824 9.58195 5.43824 9.20826V6.29657C5.43824 6.10949 5.43905 5.9978 5.44154 5.92683C5.44406 5.85532 5.449 5.83064 5.45255 5.81679C5.47376 5.72808 5.51902 5.64691 5.5835 5.5824C5.64724 5.51866 5.72819 5.4741 5.81568 5.45255C5.85197 5.44411 5.91706 5.43824 6.29657 5.43824H9.20936C9.39627 5.43825 9.50817 5.43905 9.57909 5.44155C9.64988 5.44405 9.67528 5.44903 9.68914 5.45255C9.77774 5.47382 9.85909 5.51907 9.92352 5.5835C9.98795 5.648 10.0333 5.72923 10.0545 5.81789Z" fill="var(--fill-0, #1686A4)"/>
<path fill-rule="evenodd" clip-rule="evenodd" d="M11.5059 14.729V17.77C11.5059 18.0413 11.5059 18.2922 11.4531 18.5166C11.3701 18.8636 11.1924 19.182 10.9403 19.4344C10.6881 19.6867 10.3706 19.864 10.0237 19.9472C9.7983 19.9989 9.5443 19.9989 9.2699 19.9989H6.2287C5.95742 19.9989 5.70664 19.9989 5.48226 19.9461C5.13534 19.8631 4.81687 19.6854 4.56452 19.4333C4.34388 19.2128 4.18015 18.9428 4.08694 18.6465L4.05172 18.5177C4 18.2928 4 18.0367 4 17.7629L4 14.7214C4 14.4503 3.99999 14.1994 4.05282 13.9752L4.08804 13.8465C4.18097 13.55 4.34401 13.2794 4.56452 13.0586C4.8167 12.8062 5.13422 12.628 5.48116 12.5447L5.65723 12.515C5.83624 12.4933 6.02954 12.493 6.23604 12.493H9.27774C9.54881 12.493 9.79944 12.493 10.0237 12.5458L10.1524 12.5821C10.4492 12.6751 10.7205 12.8379 10.9414 13.0586C11.1622 13.2793 11.3258 13.5499 11.419 13.8465L11.4542 13.9752L11.485 14.1502C11.506 14.3225 11.506 14.508 11.5059 14.7058L11.5059 14.729ZM10.0633 14.4209C10.0608 14.3494 10.0569 14.3258 10.0534 14.312C10.0322 14.2234 9.98673 14.1409 9.92242 14.0765C9.85822 14.0123 9.77736 13.9658 9.68914 13.9444C9.65436 13.9369 9.58902 13.9323 9.20936 13.9323H6.29657C6.10941 13.9323 5.9978 13.9331 5.92683 13.9356L5.81899 13.9455C5.73025 13.9668 5.64692 14.0131 5.5824 14.0776C5.51792 14.1421 5.47266 14.2233 5.45145 14.312C5.44409 14.3473 5.43824 14.4173 5.43824 14.7906V17.7023C5.43824 17.8895 5.43905 18.0011 5.44154 18.0721L5.45145 18.181L5.47236 18.247C5.49709 18.3104 5.53506 18.3681 5.5835 18.4165C5.648 18.481 5.72917 18.5262 5.81789 18.5475L5.92683 18.5574C5.99779 18.5597 6.10947 18.5607 6.29657 18.5607H9.20936C9.58866 18.5607 9.65281 18.5548 9.68914 18.5464L9.75406 18.5265C9.81731 18.5018 9.87515 18.4638 9.92352 18.4154C9.98798 18.3509 10.0333 18.2697 10.0545 18.181L10.0633 18.0721C10.0656 18.0011 10.0666 17.8894 10.0666 17.7023V14.7906C10.0666 14.6037 10.0658 14.4919 10.0633 14.4209Z" fill="var(--fill-0, #1686A4)"/>
<path d="M11.5059 9.2729V6.23604C11.5059 6.03412 11.5059 5.83283 11.4839 5.65613L11.4531 5.48116C11.3701 5.13419 11.1925 4.81689 10.9403 4.56452C10.7196 4.34364 10.4491 4.18014 10.1524 4.08694L10.0226 4.05062C9.80178 3.99995 9.55652 3.99998 9.28863 4L9.26988 4.00001H6.23604C6.03334 4 5.83456 4 5.65723 4.02201L5.48116 4.05283C5.13432 4.13579 4.81684 4.3125 4.56452 4.56452C4.34368 4.78513 4.18019 5.0559 4.08694 5.35241L4.05062 5.48226C3.99994 5.70271 3.99997 5.94799 4 6.21544L4 6.23604V9.26878C4 9.53979 4 9.79949 4.05282 10.0237L4.08804 10.1524C4.18099 10.4489 4.34401 10.7195 4.56452 10.9403C4.81671 11.1927 5.13531 11.3709 5.48226 11.4542C5.70727 11.5059 5.95808 11.5059 6.232 11.5059H9.26988C9.54396 11.5059 9.79727 11.5053 10.0237 11.452C10.3708 11.3691 10.6889 11.1925 10.9414 10.9403C11.1938 10.6881 11.3709 10.3695 11.4542 10.0226C11.5059 9.79759 11.5059 9.54676 11.5059 9.2729Z" fill="var(--fill-0, #1686A4)"/>
<path fill-rule="evenodd" clip-rule="evenodd" d="M20 9.26878L20 9.28924C20 9.55674 20.0001 9.80208 19.9494 10.0226C19.8661 10.3695 19.6879 10.6881 19.4355 10.9403C19.1832 11.1923 18.8657 11.369 18.5188 11.452C18.2925 11.5053 18.038 11.5059 17.764 11.5059H14.7279C14.4536 11.5059 14.2028 11.5059 13.9774 11.4542C13.6304 11.371 13.3119 11.1927 13.0597 10.9403C12.839 10.7195 12.6751 10.4491 12.5821 10.1524L12.5469 10.0237C12.4941 9.79947 12.4941 9.53982 12.4941 9.26878V6.23192C12.4941 5.95806 12.4941 5.70723 12.5458 5.48226L12.581 5.35241C12.6743 5.05586 12.8388 4.78516 13.0597 4.56452C13.3121 4.31256 13.6295 4.13571 13.9763 4.05283L14.1513 4.02201C14.3284 4 14.5277 4 14.7301 4.00001L17.764 4.00001L17.7856 4C17.9839 3.99998 18.1701 3.99995 18.3428 4.02091L18.5177 4.05062L18.6476 4.08694C18.9441 4.18019 19.2149 4.34373 19.4355 4.56452C19.6875 4.81684 19.8642 5.13432 19.9472 5.48116L19.978 5.65613C20 5.83278 20 6.03412 20 6.23599V9.26878Z" fill="var(--fill-0, #1686A4)"/>
<path fill-rule="evenodd" clip-rule="evenodd" d="M12.4941 14.729V17.7629C12.4941 18.0342 12.4941 18.2933 12.5469 18.5177C12.6299 18.8647 12.8076 19.182 13.0597 19.4344C13.3119 19.6867 13.6294 19.864 13.9763 19.9472L14.1513 19.978C14.3284 20 14.5192 20 14.7216 20H17.764C18.0352 20 18.2945 20 18.5188 19.9472C18.8655 19.864 19.1823 19.6865 19.4344 19.4344C19.6865 19.1823 19.864 18.8645 19.9472 18.5177C20 18.2933 20 18.0424 20 17.7711V14.7312C20 14.5293 20 14.328 19.978 14.1513L19.9472 13.9763L19.912 13.8476C19.8191 13.5508 19.6561 13.2796 19.4355 13.0586C19.2149 12.8376 18.9442 12.6744 18.6476 12.581L18.5177 12.5447C18.2927 12.493 18.0419 12.493 17.768 12.493H14.7301C14.5277 12.493 14.3284 12.493 14.1513 12.515L13.9763 12.5458C13.6294 12.6287 13.3121 12.8066 13.0597 13.0586C12.8388 13.2793 12.6743 13.5499 12.581 13.8465L12.5458 13.9763C12.4941 14.2013 12.4941 14.4552 12.4941 14.729Z" fill="var(--fill-0, #1686A4)"/>
<path fill-rule="evenodd" clip-rule="evenodd" d="M11.5059 14.729V17.77C11.5059 18.0413 11.5059 18.2922 11.4531 18.5166C11.3701 18.8636 11.1924 19.182 10.9403 19.4344C10.6881 19.6867 10.3706 19.864 10.0237 19.9472C9.7983 19.9989 9.5443 19.9989 9.2699 19.9989H6.2287C5.95742 19.9989 5.70664 19.9989 5.48226 19.9461C5.13534 19.8631 4.81687 19.6854 4.56452 19.4333C4.34388 19.2128 4.18015 18.9428 4.08694 18.6465L4.05172 18.5177C4 18.2928 4 18.0367 4 17.7629L4 14.7214C4 14.4503 3.99999 14.1994 4.05282 13.9752L4.08804 13.8465C4.18097 13.55 4.34401 13.2794 4.56452 13.0586C4.8167 12.8062 5.13422 12.628 5.48116 12.5447L5.65723 12.515C5.83624 12.4933 6.02954 12.493 6.23604 12.493H9.27774C9.54881 12.493 9.79944 12.493 10.0237 12.5458L10.1524 12.5821C10.4492 12.6751 10.7205 12.8379 10.9414 13.0586C11.1622 13.2793 11.3258 13.5499 11.419 13.8465L11.4542 13.9752L11.485 14.1502C11.506 14.3225 11.506 14.508 11.5059 14.7058L11.5059 14.729Z" fill="var(--fill-0, #1686A4)"/>
</g>
</g>
</svg>
