<svg preserveAspectRatio="none" width="100%" height="100%" overflow="visible" style="display: block;" viewBox="0 0 17.2842 17.8013" fill="none" xmlns="http://www.w3.org/2000/svg">
<g id="Group">
<path id="Vector (Stroke)" d="M16.5176 17.0337C17.009 16.5422 17.2842 15.875 17.2842 15.1802V9.15872C17.2842 8.69265 16.9295 8.30919 16.4756 8.26321L16.3838 8.25833C15.8871 8.25863 15.4834 8.66173 15.4834 9.15872V15.1802C15.4834 15.3979 15.397 15.6065 15.2432 15.7603C15.1086 15.8947 14.9326 15.9779 14.7451 15.9966L14.6641 16.0005H2.62109C2.40352 16.0005 2.19483 15.914 2.04102 15.7603C1.88721 15.6065 1.80078 15.3979 1.80078 15.1802V9.15872C1.80078 8.66166 1.39745 8.25833 0.900391 8.25833C0.403334 8.25833 0 8.66166 0 9.15872V15.1802C0 15.8752 0.276149 16.5423 0.767578 17.0337C1.25899 17.5251 1.92617 17.8013 2.62109 17.8013H14.6641C15.3589 17.8012 16.0262 17.5251 16.5176 17.0337Z" fill="var(--fill-0, #0B0C0C)"/>
<path id="Vector (Stroke)_2" d="M7.74216 10.4644V0.900391C7.74223 0.40342 8.14551 0 8.64255 0C9.13959 0 9.54287 0.40342 9.54294 0.900391V10.4637L11.5414 8.51435C11.8971 8.16762 12.4668 8.17418 12.8139 8.52997C13.161 8.88592 13.1529 9.45552 12.7973 9.80244L9.27093 13.2438C8.96491 13.5422 8.50024 13.5786 8.15472 13.3552L8.143 13.3474L8.02581 13.2546L8.01409 13.2438L4.48772 9.80244C4.13213 9.45552 4.12399 8.88592 4.47112 8.52997C4.81826 8.17416 5.38791 8.16763 5.74358 8.51435L7.74216 10.4644Z" fill="var(--fill-0, #0B0C0C)"/>
</g>
</svg>
