<svg preserveAspectRatio="none" width="100%" height="100%" overflow="visible" style="display: block;" viewBox="0 0 15.4042 15.3003" fill="none" xmlns="http://www.w3.org/2000/svg">
<g id="Group">
<path id="Vector" d="M10.6501 11.6501V13.8501C10.6501 14.0501 10.6501 14.2501 10.4501 14.3501C10.3501 14.4501 10.1501 14.5501 9.95013 14.5501H1.45013C1.25013 14.5501 1.05013 14.5501 0.950133 14.3501C0.850133 14.2501 0.750133 14.0501 0.750133 13.8501V1.45013C0.750133 1.25013 0.750133 1.05013 0.950133 0.950133C1.05013 0.850133 1.25013 0.750133 1.45013 0.750133H9.95013C10.1501 0.750133 10.3501 0.750133 10.4501 0.950133C10.5501 1.05013 10.6501 1.25013 10.6501 1.45013V3.75013" stroke="var(--stroke-0, #0B0C0C)" stroke-width="1.5" stroke-linecap="round" stroke-linejoin="round"/>
<path id="Vector_2" d="M10.6501 3.65013V7.65013L13.4501 10.4501M10.6501 3.65013C11.6501 3.65013 12.6501 4.05013 13.4501 4.85013C14.2501 5.55013 14.6501 6.55013 14.6501 7.65013C14.6501 8.15013 14.5501 8.65013 14.3501 9.15013C14.1501 9.65013 13.8501 10.0501 13.4501 10.4501M10.6501 3.65013C11.4501 3.65013 12.2501 3.85013 12.8501 4.35013C13.5501 4.75013 14.0501 5.45013 14.3501 6.15013C14.6501 6.85013 14.7501 7.65013 14.5501 8.45013C14.3501 9.25013 14.0501 9.95013 13.4501 10.4501M10.6501 3.65013C9.65013 3.65013 8.65013 4.05013 7.85013 4.85013C7.05013 5.55013 6.65013 6.85013 6.65013 7.65013C6.65013 8.45013 6.95013 9.15013 7.35013 9.85013C7.75013 10.5501 8.45013 11.0501 9.15013 11.3501C9.85013 11.5501 10.6501 11.7501 11.4501 11.5501C12.1501 11.3501 12.8501 11.0501 13.4501 10.4501" stroke="var(--stroke-0, #0B0C0C)" stroke-width="1.5" stroke-linecap="round" stroke-linejoin="round"/>
</g>
</svg>
