<svg preserveAspectRatio="none" width="100%" height="100%" overflow="visible" style="display: block;" viewBox="0 0 15.5 13.4" fill="none" xmlns="http://www.w3.org/2000/svg">
<path id="Vector" d="M13.1 0H2.3C1 0 0 1 0 2.2V11.2C0 12.4 1 13.4 2.3 13.4H13.2C14.5 13.4 15.5 12.4 15.5 11.2V2.2C15.5 1 14.5 0 13.2 0H13.1ZM3.8 9H11.6C12 9 12.4 9.3 12.4 9.8C12.4 10.3 12.1 10.6 11.6 10.6H3.8C3.4 10.6 3 10.3 3 9.8C3 9.3 3.3 9 3.8 9ZM3.1 6.7V3.7C3.1 3.3 3.4 2.9 3.9 2.9H7C7.4 2.9 7.8 3.2 7.8 3.7V6.7C7.8 7.1 7.5 7.5 7 7.5H3.9C3.5 7.5 3.1 7.2 3.1 6.7ZM9.3 6.7C9.3 6.3 9.6 5.9 10.1 5.9H11.7C12.1 5.9 12.5 6.2 12.5 6.7C12.5 7.2 12.2 7.5 11.7 7.5H10.1C9.7 7.5 9.3 7.2 9.3 6.7ZM11.6 4.5H10C9.6 4.5 9.2 4.2 9.2 3.7C9.2 3.2 9.5 2.9 10 2.9H11.6C12 2.9 12.4 3.2 12.4 3.7C12.4 4.2 12.1 4.5 11.6 4.5Z" fill="var(--fill-0, #1686A4)"/>
</svg>
