<svg preserveAspectRatio="none" width="100%" height="100%" overflow="visible" style="display: block;" viewBox="0 0 16 11.9392" fill="none" xmlns="http://www.w3.org/2000/svg">
<g id="Icon_Nurse_Fill">
<path id="Vector" d="M13.97 9.259H2.11215V11.9392H13.97V9.259Z" fill="var(--fill-0, #899091)"/>
<path id="Vector_2" d="M15.7563 4.22335C13.2386 1.46193 10.6396 0 8.04061 0C5.44162 0 2.76142 1.46193 0.324873 4.22335L0 4.54822L1.70558 8.04061H14.2944L16 4.54822L15.6751 4.22335H15.7563ZM10.0711 5.27919H8.60914V6.74112C8.60914 7.06599 8.28426 7.30965 7.95939 7.30965C7.63452 7.30965 7.39086 7.06599 7.30965 6.74112V5.27919H5.92893C5.60406 5.27919 5.27919 5.03553 5.27919 4.62944C5.27919 4.22335 5.52284 3.9797 5.92893 3.9797H7.30965V2.59899C7.30965 2.27411 7.5533 1.94924 7.95939 1.94924C8.36548 1.94924 8.60914 2.19289 8.60914 2.59899V3.9797H10.0711C10.3959 3.9797 10.6396 4.30457 10.6396 4.62944C10.6396 4.95431 10.3959 5.19797 10.0711 5.27919Z" fill="var(--fill-0, #899091)"/>
</g>
</svg>
