<svg preserveAspectRatio="none" width="100%" height="100%" overflow="visible" style="display: block;" viewBox="0 0 130.183 126.525" fill="none" xmlns="http://www.w3.org/2000/svg">
<path id="Vector" d="M95.7728 0.0201687C95.7728 0.0201687 74.0628 0.49017 64.3128 22.5102L59.3728 31.0902L6.06283 0.280169C6.06283 0.280169 -3.78717 15.2102 1.62283 33.2902C4.49283 42.8702 7.96283 50.5402 25.7828 61.4502L37.8128 68.4002L9.60283 117.03C9.60283 117.03 41.3928 136.43 62.3028 119.77C67.8928 115.32 71.5728 108.86 72.8128 101.82C72.8128 101.77 72.8328 101.71 72.8428 101.66C74.4028 92.5802 72.7828 74.6802 54.6228 63.9002L29.6528 49.2502C29.6528 49.2502 10.3828 40.3002 12.8128 18.5402L80.8028 57.6602C80.8028 57.6602 93.2028 65.3102 88.1028 79.8702L119.743 24.9402C119.743 24.9402 122.863 18.7302 130.183 18.5002C130.183 18.5002 120.313 -0.999831 95.7628 0.0401687L95.7728 0.0201687ZM60.5128 95.1102C60.9628 103.19 56.9128 109.09 50.6028 112.48C38.5228 118.96 26.8928 111.93 26.8928 111.93L48.4728 74.5402C57.9928 80.3302 60.1428 88.5302 60.5128 95.1102ZM91.3228 49.5502L70.0128 37.2402L76.8428 25.1102C79.1028 21.3102 82.2028 18.0502 86.0028 15.7702C98.9028 8.03017 110.773 15.8502 110.773 15.8502L91.3228 49.5402V49.5502Z" fill="var(--fill-0, #E31E49)"/>
</svg>
