<svg preserveAspectRatio="none" width="100%" height="100%" overflow="visible" style="display: block;" viewBox="0 0 16 16" fill="none" xmlns="http://www.w3.org/2000/svg">
<path id="Vector" d="M2.18182 12.3636H7.27273V14.5455H5.09091V16H10.9091V14.5455H8.72727V12.3636H13.8182C14.3967 12.3631 14.9513 12.133 15.3603 11.724C15.7694 11.3149 15.9994 10.7603 16 10.1818V2.18182C15.9994 1.60334 15.7694 1.04872 15.3603 0.639678C14.9513 0.230633 14.3967 0.000577611 13.8182 0H2.18182C1.60334 0.000577611 1.04872 0.230633 0.639678 0.639678C0.230633 1.04872 0.000577611 1.60334 0 2.18182V10.1818C0.000577611 10.7603 0.230633 11.3149 0.639678 11.724C1.04872 12.133 1.60334 12.3631 2.18182 12.3636Z" fill="var(--fill-0, #1686A4)"/>
</svg>
